<mxfile host="app.diagrams.net" modified="2024-03-19T22:26:58.830Z" agent="Mozilla/5.0 (Windows NT 10.0; Win64; x64) AppleWebKit/537.36 (KHTML, like Gecko) Chrome/122.0.0.0 Safari/537.36" etag="Y8o653Uu0Ih1Rjx5yIT4" version="24.0.7" type="device" pages="4">
  <diagram name="Program" id="Enow7NBPvnbtEqR4Comn">
    <mxGraphModel dx="1050" dy="522" grid="1" gridSize="10" guides="1" tooltips="1" connect="1" arrows="1" fold="1" page="1" pageScale="1" pageWidth="827" pageHeight="1169" math="0" shadow="0">
      <root>
        <mxCell id="0" />
        <mxCell id="1" parent="0" />
        <mxCell id="A_dSZZzPXmI9y-Q8Zzxz-4" value="" style="group" parent="1" vertex="1" connectable="0">
          <mxGeometry x="270" y="400" width="180" height="120" as="geometry" />
        </mxCell>
        <mxCell id="A_dSZZzPXmI9y-Q8Zzxz-5" value="+ method(type): type" style="text;strokeColor=none;fillColor=none;align=left;verticalAlign=top;spacingLeft=4;spacingRight=4;overflow=hidden;rotatable=0;points=[[0,0.5],[1,0.5]];portConstraint=eastwest;" parent="A_dSZZzPXmI9y-Q8Zzxz-4" vertex="1">
          <mxGeometry y="60" width="180" height="50" as="geometry" />
        </mxCell>
        <mxCell id="A_dSZZzPXmI9y-Q8Zzxz-6" value="«interface»&lt;br&gt;&lt;b&gt;ASTNode&lt;br&gt;&lt;br&gt;&lt;br&gt;&lt;br&gt;&lt;br&gt;&lt;br&gt;&lt;/b&gt;" style="html=1;" parent="A_dSZZzPXmI9y-Q8Zzxz-4" vertex="1">
          <mxGeometry width="180" height="120" as="geometry" />
        </mxCell>
        <mxCell id="A_dSZZzPXmI9y-Q8Zzxz-7" value="" style="line;strokeWidth=1;fillColor=none;align=left;verticalAlign=middle;spacingTop=-1;spacingLeft=3;spacingRight=3;rotatable=0;labelPosition=right;points=[];portConstraint=eastwest;" parent="A_dSZZzPXmI9y-Q8Zzxz-4" vertex="1">
          <mxGeometry y="50" width="180" height="8" as="geometry" />
        </mxCell>
        <mxCell id="A_dSZZzPXmI9y-Q8Zzxz-8" value="+ getLine(): int&#xa;+ getColumn():int&#xa;+ accept(Visitor v, TP p): TR" style="text;strokeColor=none;fillColor=none;align=left;verticalAlign=top;spacingLeft=4;spacingRight=4;overflow=hidden;rotatable=0;points=[[0,0.5],[1,0.5]];portConstraint=eastwest;" parent="A_dSZZzPXmI9y-Q8Zzxz-4" vertex="1">
          <mxGeometry y="60" width="180" height="50" as="geometry" />
        </mxCell>
        <mxCell id="A_dSZZzPXmI9y-Q8Zzxz-9" value="Program" style="swimlane;fontStyle=1;align=center;verticalAlign=top;childLayout=stackLayout;horizontal=1;startSize=26;horizontalStack=0;resizeParent=1;resizeParentMax=0;resizeLast=0;collapsible=1;marginBottom=0;" parent="1" vertex="1">
          <mxGeometry x="276.5" y="630" width="167" height="34" as="geometry" />
        </mxCell>
        <mxCell id="A_dSZZzPXmI9y-Q8Zzxz-10" value="" style="line;strokeWidth=1;fillColor=none;align=left;verticalAlign=middle;spacingTop=-1;spacingLeft=3;spacingRight=3;rotatable=0;labelPosition=right;points=[];portConstraint=eastwest;" parent="A_dSZZzPXmI9y-Q8Zzxz-9" vertex="1">
          <mxGeometry y="26" width="167" height="8" as="geometry" />
        </mxCell>
        <mxCell id="A_dSZZzPXmI9y-Q8Zzxz-11" value="" style="endArrow=block;dashed=1;endFill=0;endSize=12;html=1;entryX=0.5;entryY=1;entryDx=0;entryDy=0;exitX=0.5;exitY=0;exitDx=0;exitDy=0;" parent="1" source="A_dSZZzPXmI9y-Q8Zzxz-9" target="A_dSZZzPXmI9y-Q8Zzxz-6" edge="1">
          <mxGeometry width="160" relative="1" as="geometry">
            <mxPoint x="200" y="590" as="sourcePoint" />
            <mxPoint x="360" y="590" as="targetPoint" />
          </mxGeometry>
        </mxCell>
        <mxCell id="A_dSZZzPXmI9y-Q8Zzxz-12" value="FunctionDefinition" style="swimlane;fontStyle=1;align=center;verticalAlign=top;childLayout=stackLayout;horizontal=1;startSize=26;horizontalStack=0;resizeParent=1;resizeParentMax=0;resizeLast=0;collapsible=1;marginBottom=0;" parent="1" vertex="1">
          <mxGeometry x="720" y="720" width="167" height="34" as="geometry" />
        </mxCell>
        <mxCell id="A_dSZZzPXmI9y-Q8Zzxz-14" value="" style="line;strokeWidth=1;fillColor=none;align=left;verticalAlign=middle;spacingTop=-1;spacingLeft=3;spacingRight=3;rotatable=0;labelPosition=right;points=[];portConstraint=eastwest;" parent="A_dSZZzPXmI9y-Q8Zzxz-12" vertex="1">
          <mxGeometry y="26" width="167" height="8" as="geometry" />
        </mxCell>
        <mxCell id="A_dSZZzPXmI9y-Q8Zzxz-15" value="VariableDefinition" style="swimlane;fontStyle=1;align=center;verticalAlign=top;childLayout=stackLayout;horizontal=1;startSize=26;horizontalStack=0;resizeParent=1;resizeParentMax=0;resizeLast=0;collapsible=1;marginBottom=0;" parent="1" vertex="1">
          <mxGeometry x="510" y="720" width="167" height="58" as="geometry" />
        </mxCell>
        <mxCell id="A_dSZZzPXmI9y-Q8Zzxz-16" value="- offset: int&#xa;" style="text;strokeColor=none;fillColor=none;align=left;verticalAlign=top;spacingLeft=4;spacingRight=4;overflow=hidden;rotatable=0;points=[[0,0.5],[1,0.5]];portConstraint=eastwest;" parent="A_dSZZzPXmI9y-Q8Zzxz-15" vertex="1">
          <mxGeometry y="26" width="167" height="24" as="geometry" />
        </mxCell>
        <mxCell id="A_dSZZzPXmI9y-Q8Zzxz-17" value="" style="line;strokeWidth=1;fillColor=none;align=left;verticalAlign=middle;spacingTop=-1;spacingLeft=3;spacingRight=3;rotatable=0;labelPosition=right;points=[];portConstraint=eastwest;" parent="A_dSZZzPXmI9y-Q8Zzxz-15" vertex="1">
          <mxGeometry y="50" width="167" height="8" as="geometry" />
        </mxCell>
        <mxCell id="A_dSZZzPXmI9y-Q8Zzxz-18" value="" style="group" parent="1" vertex="1" connectable="0">
          <mxGeometry x="600" y="520" width="180" height="120" as="geometry" />
        </mxCell>
        <mxCell id="A_dSZZzPXmI9y-Q8Zzxz-19" value="+ method(type): type" style="text;strokeColor=none;fillColor=none;align=left;verticalAlign=top;spacingLeft=4;spacingRight=4;overflow=hidden;rotatable=0;points=[[0,0.5],[1,0.5]];portConstraint=eastwest;" parent="A_dSZZzPXmI9y-Q8Zzxz-18" vertex="1">
          <mxGeometry y="60" width="180" height="50" as="geometry" />
        </mxCell>
        <mxCell id="A_dSZZzPXmI9y-Q8Zzxz-20" value="«interface»&lt;br&gt;&lt;b&gt;Definition&lt;br&gt;&lt;br&gt;&lt;br&gt;&lt;br&gt;&lt;br&gt;&lt;br&gt;&lt;/b&gt;" style="html=1;" parent="A_dSZZzPXmI9y-Q8Zzxz-18" vertex="1">
          <mxGeometry width="180" height="120" as="geometry" />
        </mxCell>
        <mxCell id="A_dSZZzPXmI9y-Q8Zzxz-21" value="" style="line;strokeWidth=1;fillColor=none;align=left;verticalAlign=middle;spacingTop=-1;spacingLeft=3;spacingRight=3;rotatable=0;labelPosition=right;points=[];portConstraint=eastwest;" parent="A_dSZZzPXmI9y-Q8Zzxz-18" vertex="1">
          <mxGeometry y="50" width="180" height="8" as="geometry" />
        </mxCell>
        <mxCell id="A_dSZZzPXmI9y-Q8Zzxz-22" value="+ getName(): String&#xa;+ getScope(): int&#xa;+ setScope(int s):void" style="text;strokeColor=none;fillColor=none;align=left;verticalAlign=top;spacingLeft=4;spacingRight=4;overflow=hidden;rotatable=0;points=[[0,0.5],[1,0.5]];portConstraint=eastwest;" parent="A_dSZZzPXmI9y-Q8Zzxz-18" vertex="1">
          <mxGeometry y="60" width="180" height="60" as="geometry" />
        </mxCell>
        <mxCell id="A_dSZZzPXmI9y-Q8Zzxz-23" value="*" style="endArrow=open;html=1;endSize=12;startArrow=diamondThin;startSize=14;startFill=0;edgeStyle=orthogonalEdgeStyle;align=left;verticalAlign=bottom;exitX=1;exitY=0.25;exitDx=0;exitDy=0;entryX=0;entryY=0.25;entryDx=0;entryDy=0;" parent="1" source="A_dSZZzPXmI9y-Q8Zzxz-9" target="A_dSZZzPXmI9y-Q8Zzxz-20" edge="1">
          <mxGeometry x="0.6735" relative="1" as="geometry">
            <mxPoint x="443.5" y="669" as="sourcePoint" />
            <mxPoint x="610" y="670" as="targetPoint" />
            <mxPoint as="offset" />
          </mxGeometry>
        </mxCell>
        <mxCell id="A_dSZZzPXmI9y-Q8Zzxz-24" value="" style="endArrow=block;dashed=1;endFill=0;endSize=12;html=1;entryX=0.25;entryY=1;entryDx=0;entryDy=0;exitX=0.5;exitY=0;exitDx=0;exitDy=0;" parent="1" source="A_dSZZzPXmI9y-Q8Zzxz-15" target="A_dSZZzPXmI9y-Q8Zzxz-20" edge="1">
          <mxGeometry width="160" relative="1" as="geometry">
            <mxPoint x="500" y="690" as="sourcePoint" />
            <mxPoint x="660" y="690" as="targetPoint" />
            <Array as="points">
              <mxPoint x="594" y="700" />
              <mxPoint x="645" y="700" />
            </Array>
          </mxGeometry>
        </mxCell>
        <mxCell id="A_dSZZzPXmI9y-Q8Zzxz-25" value="" style="endArrow=block;dashed=1;endFill=0;endSize=12;html=1;entryX=0.25;entryY=1;entryDx=0;entryDy=0;exitX=0.5;exitY=0;exitDx=0;exitDy=0;" parent="1" source="A_dSZZzPXmI9y-Q8Zzxz-12" target="A_dSZZzPXmI9y-Q8Zzxz-20" edge="1">
          <mxGeometry width="160" relative="1" as="geometry">
            <mxPoint x="604" y="730" as="sourcePoint" />
            <mxPoint x="700" y="650" as="targetPoint" />
            <Array as="points">
              <mxPoint x="804" y="700" />
              <mxPoint x="645" y="700" />
            </Array>
          </mxGeometry>
        </mxCell>
        <mxCell id="A_dSZZzPXmI9y-Q8Zzxz-26" value="" style="group" parent="1" vertex="1" connectable="0">
          <mxGeometry x="887" y="520" width="180" height="120" as="geometry" />
        </mxCell>
        <mxCell id="A_dSZZzPXmI9y-Q8Zzxz-27" value="+ method(type): type" style="text;strokeColor=none;fillColor=none;align=left;verticalAlign=top;spacingLeft=4;spacingRight=4;overflow=hidden;rotatable=0;points=[[0,0.5],[1,0.5]];portConstraint=eastwest;" parent="A_dSZZzPXmI9y-Q8Zzxz-26" vertex="1">
          <mxGeometry y="60" width="180" height="50" as="geometry" />
        </mxCell>
        <mxCell id="A_dSZZzPXmI9y-Q8Zzxz-28" value="«interface»&lt;br&gt;&lt;b&gt;Type&lt;br&gt;&lt;br&gt;&lt;br&gt;&lt;br&gt;&lt;br&gt;&lt;/b&gt;" style="html=1;" parent="A_dSZZzPXmI9y-Q8Zzxz-26" vertex="1">
          <mxGeometry width="180" height="120" as="geometry" />
        </mxCell>
        <mxCell id="A_dSZZzPXmI9y-Q8Zzxz-29" value="" style="line;strokeWidth=1;fillColor=none;align=left;verticalAlign=middle;spacingTop=-1;spacingLeft=3;spacingRight=3;rotatable=0;labelPosition=right;points=[];portConstraint=eastwest;" parent="A_dSZZzPXmI9y-Q8Zzxz-26" vertex="1">
          <mxGeometry y="50" width="180" height="8" as="geometry" />
        </mxCell>
        <mxCell id="A_dSZZzPXmI9y-Q8Zzxz-30" value="" style="endArrow=open;endFill=1;endSize=12;html=1;exitX=1;exitY=0.25;exitDx=0;exitDy=0;entryX=0;entryY=0.25;entryDx=0;entryDy=0;" parent="1" source="A_dSZZzPXmI9y-Q8Zzxz-20" target="A_dSZZzPXmI9y-Q8Zzxz-28" edge="1">
          <mxGeometry width="160" relative="1" as="geometry">
            <mxPoint x="780.0000000000001" y="559" as="sourcePoint" />
            <mxPoint x="861.08" y="570" as="targetPoint" />
            <Array as="points" />
          </mxGeometry>
        </mxCell>
        <mxCell id="A_dSZZzPXmI9y-Q8Zzxz-31" value="1" style="edgeLabel;html=1;align=center;verticalAlign=middle;resizable=0;points=[];" parent="A_dSZZzPXmI9y-Q8Zzxz-30" vertex="1" connectable="0">
          <mxGeometry x="0.211" y="-1" relative="1" as="geometry">
            <mxPoint as="offset" />
          </mxGeometry>
        </mxCell>
        <mxCell id="A_dSZZzPXmI9y-Q8Zzxz-32" value="*" style="endArrow=open;html=1;endSize=12;startArrow=diamondThin;startSize=14;startFill=0;edgeStyle=orthogonalEdgeStyle;align=left;verticalAlign=bottom;exitX=0.5;exitY=1;exitDx=0;exitDy=0;entryX=0.75;entryY=1;entryDx=0;entryDy=0;" parent="1" source="A_dSZZzPXmI9y-Q8Zzxz-12" target="A_dSZZzPXmI9y-Q8Zzxz-15" edge="1">
          <mxGeometry x="0.7755" relative="1" as="geometry">
            <mxPoint x="804.0010000000002" y="806" as="sourcePoint" />
            <mxPoint x="636.9200000000001" y="806.988" as="targetPoint" />
            <mxPoint as="offset" />
            <Array as="points">
              <mxPoint x="804" y="870" />
              <mxPoint x="635" y="870" />
            </Array>
          </mxGeometry>
        </mxCell>
        <mxCell id="A_dSZZzPXmI9y-Q8Zzxz-33" value="" style="group" parent="1" vertex="1" connectable="0">
          <mxGeometry x="900" y="850" width="180" height="120" as="geometry" />
        </mxCell>
        <mxCell id="A_dSZZzPXmI9y-Q8Zzxz-34" value="+ method(type): type" style="text;strokeColor=none;fillColor=none;align=left;verticalAlign=top;spacingLeft=4;spacingRight=4;overflow=hidden;rotatable=0;points=[[0,0.5],[1,0.5]];portConstraint=eastwest;" parent="A_dSZZzPXmI9y-Q8Zzxz-33" vertex="1">
          <mxGeometry y="60" width="180" height="50" as="geometry" />
        </mxCell>
        <mxCell id="A_dSZZzPXmI9y-Q8Zzxz-35" value="«interface»&lt;br&gt;&lt;b&gt;Statement&lt;br&gt;&lt;br&gt;&lt;br&gt;&lt;br&gt;&lt;br&gt;&lt;br&gt;&lt;/b&gt;" style="html=1;" parent="A_dSZZzPXmI9y-Q8Zzxz-33" vertex="1">
          <mxGeometry width="180" height="120" as="geometry" />
        </mxCell>
        <mxCell id="A_dSZZzPXmI9y-Q8Zzxz-36" value="" style="line;strokeWidth=1;fillColor=none;align=left;verticalAlign=middle;spacingTop=-1;spacingLeft=3;spacingRight=3;rotatable=0;labelPosition=right;points=[];portConstraint=eastwest;" parent="A_dSZZzPXmI9y-Q8Zzxz-33" vertex="1">
          <mxGeometry y="50" width="180" height="8" as="geometry" />
        </mxCell>
        <mxCell id="A_dSZZzPXmI9y-Q8Zzxz-37" value="*" style="endArrow=open;html=1;endSize=12;startArrow=diamondThin;startSize=14;startFill=0;edgeStyle=orthogonalEdgeStyle;align=left;verticalAlign=bottom;entryX=0;entryY=0.25;entryDx=0;entryDy=0;exitX=0.737;exitY=0.875;exitDx=0;exitDy=0;exitPerimeter=0;" parent="1" source="A_dSZZzPXmI9y-Q8Zzxz-14" target="A_dSZZzPXmI9y-Q8Zzxz-35" edge="1">
          <mxGeometry x="0.5771" y="-10" relative="1" as="geometry">
            <mxPoint x="833.0590000000002" y="805.012" as="sourcePoint" />
            <mxPoint x="870" y="930" as="targetPoint" />
            <mxPoint as="offset" />
          </mxGeometry>
        </mxCell>
      </root>
    </mxGraphModel>
  </diagram>
  <diagram id="z-JQiZJYWG9964wJdLve" name="Expression">
    <mxGraphModel dx="2529" dy="435" grid="1" gridSize="10" guides="1" tooltips="1" connect="1" arrows="1" fold="1" page="1" pageScale="1" pageWidth="827" pageHeight="1169" math="0" shadow="0">
      <root>
        <mxCell id="0" />
        <mxCell id="1" parent="0" />
        <mxCell id="ztzIx2R9RVlWwnKAtfwI-9" value="Variable" style="swimlane;fontStyle=1;align=center;verticalAlign=top;childLayout=stackLayout;horizontal=1;startSize=26;horizontalStack=0;resizeParent=1;resizeParentMax=0;resizeLast=0;collapsible=1;marginBottom=0;" parent="1" vertex="1">
          <mxGeometry x="230" y="600" width="167" height="74" as="geometry" />
        </mxCell>
        <mxCell id="ztzIx2R9RVlWwnKAtfwI-10" value="- name: String&#xa;- definition: Definition" style="text;strokeColor=none;fillColor=none;align=left;verticalAlign=top;spacingLeft=4;spacingRight=4;overflow=hidden;rotatable=0;points=[[0,0.5],[1,0.5]];portConstraint=eastwest;" parent="ztzIx2R9RVlWwnKAtfwI-9" vertex="1">
          <mxGeometry y="26" width="167" height="40" as="geometry" />
        </mxCell>
        <mxCell id="ztzIx2R9RVlWwnKAtfwI-11" value="" style="line;strokeWidth=1;fillColor=none;align=left;verticalAlign=middle;spacingTop=-1;spacingLeft=3;spacingRight=3;rotatable=0;labelPosition=right;points=[];portConstraint=eastwest;" parent="ztzIx2R9RVlWwnKAtfwI-9" vertex="1">
          <mxGeometry y="66" width="167" height="8" as="geometry" />
        </mxCell>
        <mxCell id="ztzIx2R9RVlWwnKAtfwI-12" value="IntLiteral" style="swimlane;fontStyle=1;align=center;verticalAlign=top;childLayout=stackLayout;horizontal=1;startSize=26;horizontalStack=0;resizeParent=1;resizeParentMax=0;resizeLast=0;collapsible=1;marginBottom=0;" parent="1" vertex="1">
          <mxGeometry x="450" y="600" width="167" height="60" as="geometry" />
        </mxCell>
        <mxCell id="ztzIx2R9RVlWwnKAtfwI-13" value="- value: int" style="text;strokeColor=none;fillColor=none;align=left;verticalAlign=top;spacingLeft=4;spacingRight=4;overflow=hidden;rotatable=0;points=[[0,0.5],[1,0.5]];portConstraint=eastwest;" parent="ztzIx2R9RVlWwnKAtfwI-12" vertex="1">
          <mxGeometry y="26" width="167" height="26" as="geometry" />
        </mxCell>
        <mxCell id="ztzIx2R9RVlWwnKAtfwI-14" value="" style="line;strokeWidth=1;fillColor=none;align=left;verticalAlign=middle;spacingTop=-1;spacingLeft=3;spacingRight=3;rotatable=0;labelPosition=right;points=[];portConstraint=eastwest;" parent="ztzIx2R9RVlWwnKAtfwI-12" vertex="1">
          <mxGeometry y="52" width="167" height="8" as="geometry" />
        </mxCell>
        <mxCell id="ztzIx2R9RVlWwnKAtfwI-15" value="Arithmetic" style="swimlane;fontStyle=1;align=center;verticalAlign=top;childLayout=stackLayout;horizontal=1;startSize=26;horizontalStack=0;resizeParent=1;resizeParentMax=0;resizeLast=0;collapsible=1;marginBottom=0;" parent="1" vertex="1">
          <mxGeometry x="650" y="600" width="167" height="60" as="geometry" />
        </mxCell>
        <mxCell id="ztzIx2R9RVlWwnKAtfwI-16" value="- operator: String" style="text;strokeColor=none;fillColor=none;align=left;verticalAlign=top;spacingLeft=4;spacingRight=4;overflow=hidden;rotatable=0;points=[[0,0.5],[1,0.5]];portConstraint=eastwest;" parent="ztzIx2R9RVlWwnKAtfwI-15" vertex="1">
          <mxGeometry y="26" width="167" height="26" as="geometry" />
        </mxCell>
        <mxCell id="ztzIx2R9RVlWwnKAtfwI-17" value="" style="line;strokeWidth=1;fillColor=none;align=left;verticalAlign=middle;spacingTop=-1;spacingLeft=3;spacingRight=3;rotatable=0;labelPosition=right;points=[];portConstraint=eastwest;" parent="ztzIx2R9RVlWwnKAtfwI-15" vertex="1">
          <mxGeometry y="52" width="167" height="8" as="geometry" />
        </mxCell>
        <mxCell id="ztzIx2R9RVlWwnKAtfwI-18" value="" style="group" parent="1" vertex="1" connectable="0">
          <mxGeometry x="107" y="370" width="180" height="120" as="geometry" />
        </mxCell>
        <mxCell id="ztzIx2R9RVlWwnKAtfwI-19" value="+ method(type): type" style="text;strokeColor=none;fillColor=none;align=left;verticalAlign=top;spacingLeft=4;spacingRight=4;overflow=hidden;rotatable=0;points=[[0,0.5],[1,0.5]];portConstraint=eastwest;" parent="ztzIx2R9RVlWwnKAtfwI-18" vertex="1">
          <mxGeometry y="60" width="180" height="50" as="geometry" />
        </mxCell>
        <mxCell id="ztzIx2R9RVlWwnKAtfwI-20" value="«interface»&lt;br&gt;&lt;b&gt;Expression&lt;/b&gt;&lt;br&gt;&lt;br&gt;&lt;br&gt;+getLValue():boolean&lt;br&gt;&lt;div&gt;&lt;br/&gt;&lt;/div&gt;" style="html=1;" parent="ztzIx2R9RVlWwnKAtfwI-18" vertex="1">
          <mxGeometry width="180" height="120" as="geometry" />
        </mxCell>
        <mxCell id="ztzIx2R9RVlWwnKAtfwI-21" value="" style="line;strokeWidth=1;fillColor=none;align=left;verticalAlign=middle;spacingTop=-1;spacingLeft=3;spacingRight=3;rotatable=0;labelPosition=right;points=[];portConstraint=eastwest;" parent="ztzIx2R9RVlWwnKAtfwI-18" vertex="1">
          <mxGeometry y="50" width="180" height="8" as="geometry" />
        </mxCell>
        <mxCell id="ztzIx2R9RVlWwnKAtfwI-22" value="" style="endArrow=block;dashed=1;endFill=0;endSize=12;html=1;entryX=0.5;entryY=1;entryDx=0;entryDy=0;exitX=0.563;exitY=0;exitDx=0;exitDy=0;exitPerimeter=0;" parent="1" source="ztzIx2R9RVlWwnKAtfwI-9" target="ztzIx2R9RVlWwnKAtfwI-20" edge="1">
          <mxGeometry width="160" relative="1" as="geometry">
            <mxPoint x="190" y="530" as="sourcePoint" />
            <mxPoint x="350" y="530" as="targetPoint" />
            <Array as="points">
              <mxPoint x="320" y="570" />
              <mxPoint x="200" y="570" />
            </Array>
          </mxGeometry>
        </mxCell>
        <mxCell id="ztzIx2R9RVlWwnKAtfwI-23" value="" style="endArrow=block;dashed=1;endFill=0;endSize=12;html=1;exitX=0.5;exitY=0;exitDx=0;exitDy=0;entryX=0.5;entryY=1;entryDx=0;entryDy=0;" parent="1" source="ztzIx2R9RVlWwnKAtfwI-12" target="ztzIx2R9RVlWwnKAtfwI-20" edge="1">
          <mxGeometry width="160" relative="1" as="geometry">
            <mxPoint x="244" y="610" as="sourcePoint" />
            <mxPoint x="450" y="520" as="targetPoint" />
            <Array as="points">
              <mxPoint x="534" y="570" />
              <mxPoint x="200" y="570" />
            </Array>
          </mxGeometry>
        </mxCell>
        <mxCell id="ztzIx2R9RVlWwnKAtfwI-24" value="" style="endArrow=block;dashed=1;endFill=0;endSize=12;html=1;exitX=0.5;exitY=0;exitDx=0;exitDy=0;entryX=0.5;entryY=1;entryDx=0;entryDy=0;" parent="1" source="ztzIx2R9RVlWwnKAtfwI-15" target="ztzIx2R9RVlWwnKAtfwI-20" edge="1">
          <mxGeometry width="160" relative="1" as="geometry">
            <mxPoint x="444" y="610" as="sourcePoint" />
            <mxPoint x="460" y="530" as="targetPoint" />
            <Array as="points">
              <mxPoint x="730" y="570" />
              <mxPoint x="200" y="570" />
            </Array>
          </mxGeometry>
        </mxCell>
        <mxCell id="ztzIx2R9RVlWwnKAtfwI-25" value="2" style="endArrow=open;html=1;endSize=12;startArrow=diamondThin;startSize=14;startFill=0;edgeStyle=orthogonalEdgeStyle;align=left;verticalAlign=bottom;exitX=0.586;exitY=0.007;exitDx=0;exitDy=0;entryX=1;entryY=0.417;entryDx=0;entryDy=0;entryPerimeter=0;exitPerimeter=0;" parent="1" source="ztzIx2R9RVlWwnKAtfwI-15" target="ztzIx2R9RVlWwnKAtfwI-20" edge="1">
          <mxGeometry x="0.875" y="10" relative="1" as="geometry">
            <mxPoint x="610" y="500" as="sourcePoint" />
            <mxPoint x="770" y="500" as="targetPoint" />
            <mxPoint as="offset" />
          </mxGeometry>
        </mxCell>
        <mxCell id="ztzIx2R9RVlWwnKAtfwI-26" value="UnaryMinus" style="swimlane;fontStyle=1;align=center;verticalAlign=top;childLayout=stackLayout;horizontal=1;startSize=26;horizontalStack=0;resizeParent=1;resizeParentMax=0;resizeLast=0;collapsible=1;marginBottom=0;" parent="1" vertex="1">
          <mxGeometry x="-340" y="600" width="167" height="34" as="geometry" />
        </mxCell>
        <mxCell id="ztzIx2R9RVlWwnKAtfwI-27" value="" style="line;strokeWidth=1;fillColor=none;align=left;verticalAlign=middle;spacingTop=-1;spacingLeft=3;spacingRight=3;rotatable=0;labelPosition=right;points=[];portConstraint=eastwest;" parent="ztzIx2R9RVlWwnKAtfwI-26" vertex="1">
          <mxGeometry y="26" width="167" height="8" as="geometry" />
        </mxCell>
        <mxCell id="ztzIx2R9RVlWwnKAtfwI-28" value="" style="endArrow=block;dashed=1;endFill=0;endSize=12;html=1;entryX=0.5;entryY=1;entryDx=0;entryDy=0;exitX=0.5;exitY=0;exitDx=0;exitDy=0;" parent="1" source="ztzIx2R9RVlWwnKAtfwI-26" target="ztzIx2R9RVlWwnKAtfwI-20" edge="1">
          <mxGeometry width="160" relative="1" as="geometry">
            <mxPoint x="57" y="560" as="sourcePoint" />
            <mxPoint x="20" y="450" as="targetPoint" />
            <Array as="points">
              <mxPoint x="-256" y="570" />
              <mxPoint x="-10" y="570" />
              <mxPoint x="200" y="570" />
            </Array>
          </mxGeometry>
        </mxCell>
        <mxCell id="ztzIx2R9RVlWwnKAtfwI-29" value="1" style="endArrow=open;html=1;endSize=12;startArrow=diamondThin;startSize=14;startFill=0;edgeStyle=orthogonalEdgeStyle;align=left;verticalAlign=bottom;exitX=0.377;exitY=0.005;exitDx=0;exitDy=0;entryX=0;entryY=0.25;entryDx=0;entryDy=0;exitPerimeter=0;" parent="1" source="ztzIx2R9RVlWwnKAtfwI-26" target="ztzIx2R9RVlWwnKAtfwI-20" edge="1">
          <mxGeometry x="0.875" y="10" relative="1" as="geometry">
            <mxPoint x="654" y="610" as="sourcePoint" />
            <mxPoint x="297" y="430" as="targetPoint" />
            <mxPoint as="offset" />
          </mxGeometry>
        </mxCell>
        <mxCell id="ztzIx2R9RVlWwnKAtfwI-35" value="" style="endArrow=block;dashed=1;endFill=0;endSize=12;html=1;entryX=0.5;entryY=1;entryDx=0;entryDy=0;exitX=0.5;exitY=0;exitDx=0;exitDy=0;" parent="1" source="ztzIx2R9RVlWwnKAtfwI-20" edge="1">
          <mxGeometry width="160" relative="1" as="geometry">
            <mxPoint x="-40" y="350" as="sourcePoint" />
            <mxPoint x="197" y="210" as="targetPoint" />
          </mxGeometry>
        </mxCell>
        <mxCell id="ztzIx2R9RVlWwnKAtfwI-36" value="DoubleLiteral" style="swimlane;fontStyle=1;align=center;verticalAlign=top;childLayout=stackLayout;horizontal=1;startSize=26;horizontalStack=0;resizeParent=1;resizeParentMax=0;resizeLast=0;collapsible=1;marginBottom=0;" parent="1" vertex="1">
          <mxGeometry x="-160" y="600" width="167" height="60" as="geometry" />
        </mxCell>
        <mxCell id="ztzIx2R9RVlWwnKAtfwI-37" value="- value: double" style="text;strokeColor=none;fillColor=none;align=left;verticalAlign=top;spacingLeft=4;spacingRight=4;overflow=hidden;rotatable=0;points=[[0,0.5],[1,0.5]];portConstraint=eastwest;" parent="ztzIx2R9RVlWwnKAtfwI-36" vertex="1">
          <mxGeometry y="26" width="167" height="26" as="geometry" />
        </mxCell>
        <mxCell id="ztzIx2R9RVlWwnKAtfwI-38" value="" style="line;strokeWidth=1;fillColor=none;align=left;verticalAlign=middle;spacingTop=-1;spacingLeft=3;spacingRight=3;rotatable=0;labelPosition=right;points=[];portConstraint=eastwest;" parent="ztzIx2R9RVlWwnKAtfwI-36" vertex="1">
          <mxGeometry y="52" width="167" height="8" as="geometry" />
        </mxCell>
        <mxCell id="ztzIx2R9RVlWwnKAtfwI-39" value="CharacterLiteral" style="swimlane;fontStyle=1;align=center;verticalAlign=top;childLayout=stackLayout;horizontal=1;startSize=26;horizontalStack=0;resizeParent=1;resizeParentMax=0;resizeLast=0;collapsible=1;marginBottom=0;" parent="1" vertex="1">
          <mxGeometry x="20" y="600" width="167" height="60" as="geometry" />
        </mxCell>
        <mxCell id="ztzIx2R9RVlWwnKAtfwI-40" value="- value: char" style="text;strokeColor=none;fillColor=none;align=left;verticalAlign=top;spacingLeft=4;spacingRight=4;overflow=hidden;rotatable=0;points=[[0,0.5],[1,0.5]];portConstraint=eastwest;" parent="ztzIx2R9RVlWwnKAtfwI-39" vertex="1">
          <mxGeometry y="26" width="167" height="26" as="geometry" />
        </mxCell>
        <mxCell id="ztzIx2R9RVlWwnKAtfwI-41" value="" style="line;strokeWidth=1;fillColor=none;align=left;verticalAlign=middle;spacingTop=-1;spacingLeft=3;spacingRight=3;rotatable=0;labelPosition=right;points=[];portConstraint=eastwest;" parent="ztzIx2R9RVlWwnKAtfwI-39" vertex="1">
          <mxGeometry y="52" width="167" height="8" as="geometry" />
        </mxCell>
        <mxCell id="ztzIx2R9RVlWwnKAtfwI-42" value="" style="endArrow=block;dashed=1;endFill=0;endSize=12;html=1;entryX=0.5;entryY=1;entryDx=0;entryDy=0;exitX=0.5;exitY=0;exitDx=0;exitDy=0;" parent="1" source="ztzIx2R9RVlWwnKAtfwI-39" target="ztzIx2R9RVlWwnKAtfwI-20" edge="1">
          <mxGeometry width="160" relative="1" as="geometry">
            <mxPoint x="334" y="610" as="sourcePoint" />
            <mxPoint x="207" y="500" as="targetPoint" />
            <Array as="points">
              <mxPoint x="104" y="570" />
              <mxPoint x="200" y="570" />
            </Array>
          </mxGeometry>
        </mxCell>
        <mxCell id="ztzIx2R9RVlWwnKAtfwI-43" value="" style="endArrow=block;dashed=1;endFill=0;endSize=12;html=1;entryX=0.5;entryY=1;entryDx=0;entryDy=0;exitX=0.5;exitY=0;exitDx=0;exitDy=0;" parent="1" source="ztzIx2R9RVlWwnKAtfwI-36" target="ztzIx2R9RVlWwnKAtfwI-20" edge="1">
          <mxGeometry width="160" relative="1" as="geometry">
            <mxPoint x="114" y="610" as="sourcePoint" />
            <mxPoint x="207" y="500" as="targetPoint" />
            <Array as="points">
              <mxPoint x="-76" y="570" />
              <mxPoint x="200" y="570" />
            </Array>
          </mxGeometry>
        </mxCell>
        <mxCell id="ztzIx2R9RVlWwnKAtfwI-44" value="FieldAccess" style="swimlane;fontStyle=1;align=center;verticalAlign=top;childLayout=stackLayout;horizontal=1;startSize=26;horizontalStack=0;resizeParent=1;resizeParentMax=0;resizeLast=0;collapsible=1;marginBottom=0;" parent="1" vertex="1">
          <mxGeometry x="-920" y="600" width="167" height="60" as="geometry" />
        </mxCell>
        <mxCell id="ztzIx2R9RVlWwnKAtfwI-45" value="- fieldName: String" style="text;strokeColor=none;fillColor=none;align=left;verticalAlign=top;spacingLeft=4;spacingRight=4;overflow=hidden;rotatable=0;points=[[0,0.5],[1,0.5]];portConstraint=eastwest;" parent="ztzIx2R9RVlWwnKAtfwI-44" vertex="1">
          <mxGeometry y="26" width="167" height="26" as="geometry" />
        </mxCell>
        <mxCell id="ztzIx2R9RVlWwnKAtfwI-46" value="" style="line;strokeWidth=1;fillColor=none;align=left;verticalAlign=middle;spacingTop=-1;spacingLeft=3;spacingRight=3;rotatable=0;labelPosition=right;points=[];portConstraint=eastwest;" parent="ztzIx2R9RVlWwnKAtfwI-44" vertex="1">
          <mxGeometry y="52" width="167" height="8" as="geometry" />
        </mxCell>
        <mxCell id="ztzIx2R9RVlWwnKAtfwI-47" value="Cast&#xa;" style="swimlane;fontStyle=1;align=center;verticalAlign=top;childLayout=stackLayout;horizontal=1;startSize=26;horizontalStack=0;resizeParent=1;resizeParentMax=0;resizeLast=0;collapsible=1;marginBottom=0;" parent="1" vertex="1">
          <mxGeometry x="-730" y="600" width="167" height="34" as="geometry" />
        </mxCell>
        <mxCell id="ztzIx2R9RVlWwnKAtfwI-48" value="" style="line;strokeWidth=1;fillColor=none;align=left;verticalAlign=middle;spacingTop=-1;spacingLeft=3;spacingRight=3;rotatable=0;labelPosition=right;points=[];portConstraint=eastwest;" parent="ztzIx2R9RVlWwnKAtfwI-47" vertex="1">
          <mxGeometry y="26" width="167" height="8" as="geometry" />
        </mxCell>
        <mxCell id="ztzIx2R9RVlWwnKAtfwI-49" value="Negation" style="swimlane;fontStyle=1;align=center;verticalAlign=top;childLayout=stackLayout;horizontal=1;startSize=26;horizontalStack=0;resizeParent=1;resizeParentMax=0;resizeLast=0;collapsible=1;marginBottom=0;" parent="1" vertex="1">
          <mxGeometry x="1040" y="600" width="167" height="34" as="geometry" />
        </mxCell>
        <mxCell id="ztzIx2R9RVlWwnKAtfwI-50" value="" style="line;strokeWidth=1;fillColor=none;align=left;verticalAlign=middle;spacingTop=-1;spacingLeft=3;spacingRight=3;rotatable=0;labelPosition=right;points=[];portConstraint=eastwest;" parent="ztzIx2R9RVlWwnKAtfwI-49" vertex="1">
          <mxGeometry y="26" width="167" height="8" as="geometry" />
        </mxCell>
        <mxCell id="ztzIx2R9RVlWwnKAtfwI-53" value="Comparation" style="swimlane;fontStyle=1;align=center;verticalAlign=top;childLayout=stackLayout;horizontal=1;startSize=26;horizontalStack=0;resizeParent=1;resizeParentMax=0;resizeLast=0;collapsible=1;marginBottom=0;" parent="1" vertex="1">
          <mxGeometry x="840" y="600" width="167" height="60" as="geometry" />
        </mxCell>
        <mxCell id="ztzIx2R9RVlWwnKAtfwI-54" value="- operator: String" style="text;strokeColor=none;fillColor=none;align=left;verticalAlign=top;spacingLeft=4;spacingRight=4;overflow=hidden;rotatable=0;points=[[0,0.5],[1,0.5]];portConstraint=eastwest;" parent="ztzIx2R9RVlWwnKAtfwI-53" vertex="1">
          <mxGeometry y="26" width="167" height="26" as="geometry" />
        </mxCell>
        <mxCell id="ztzIx2R9RVlWwnKAtfwI-55" value="" style="line;strokeWidth=1;fillColor=none;align=left;verticalAlign=middle;spacingTop=-1;spacingLeft=3;spacingRight=3;rotatable=0;labelPosition=right;points=[];portConstraint=eastwest;" parent="ztzIx2R9RVlWwnKAtfwI-53" vertex="1">
          <mxGeometry y="52" width="167" height="8" as="geometry" />
        </mxCell>
        <mxCell id="ztzIx2R9RVlWwnKAtfwI-56" value="2" style="endArrow=open;html=1;endSize=12;startArrow=diamondThin;startSize=14;startFill=0;edgeStyle=orthogonalEdgeStyle;align=left;verticalAlign=bottom;exitX=0.5;exitY=0;exitDx=0;exitDy=0;entryX=1;entryY=0.5;entryDx=0;entryDy=0;" parent="1" source="ztzIx2R9RVlWwnKAtfwI-53" target="ztzIx2R9RVlWwnKAtfwI-20" edge="1">
          <mxGeometry x="0.875" y="10" relative="1" as="geometry">
            <mxPoint x="744" y="610" as="sourcePoint" />
            <mxPoint x="297" y="430" as="targetPoint" />
            <mxPoint as="offset" />
          </mxGeometry>
        </mxCell>
        <mxCell id="ztzIx2R9RVlWwnKAtfwI-57" value="" style="endArrow=block;dashed=1;endFill=0;endSize=12;html=1;exitX=0.429;exitY=-0.049;exitDx=0;exitDy=0;entryX=0.5;entryY=1;entryDx=0;entryDy=0;exitPerimeter=0;" parent="1" source="3_yE7wfy4IqBnz8GA9jQ-1" target="ztzIx2R9RVlWwnKAtfwI-20" edge="1">
          <mxGeometry width="160" relative="1" as="geometry">
            <mxPoint x="-456.50000000000045" y="600" as="sourcePoint" />
            <mxPoint x="110" y="470" as="targetPoint" />
            <Array as="points">
              <mxPoint x="-456" y="570" />
              <mxPoint x="-320" y="570" />
              <mxPoint x="20" y="570" />
              <mxPoint x="200" y="570" />
            </Array>
          </mxGeometry>
        </mxCell>
        <mxCell id="ztzIx2R9RVlWwnKAtfwI-58" value="2" style="endArrow=open;html=1;endSize=12;startArrow=diamondThin;startSize=14;startFill=0;edgeStyle=orthogonalEdgeStyle;align=left;verticalAlign=bottom;exitX=0.637;exitY=-0.029;exitDx=0;exitDy=0;entryX=0;entryY=0.5;entryDx=0;entryDy=0;exitPerimeter=0;" parent="1" source="3_yE7wfy4IqBnz8GA9jQ-1" target="ztzIx2R9RVlWwnKAtfwI-20" edge="1">
          <mxGeometry x="0.8641" relative="1" as="geometry">
            <mxPoint x="-414.75" y="600" as="sourcePoint" />
            <mxPoint x="117" y="410" as="targetPoint" />
            <mxPoint as="offset" />
          </mxGeometry>
        </mxCell>
        <mxCell id="ztzIx2R9RVlWwnKAtfwI-59" value="" style="endArrow=block;dashed=1;endFill=0;endSize=12;html=1;exitX=0.5;exitY=0;exitDx=0;exitDy=0;entryX=0.5;entryY=1;entryDx=0;entryDy=0;" parent="1" source="ztzIx2R9RVlWwnKAtfwI-47" target="ztzIx2R9RVlWwnKAtfwI-20" edge="1">
          <mxGeometry width="160" relative="1" as="geometry">
            <mxPoint x="-446" y="610" as="sourcePoint" />
            <mxPoint x="207" y="500" as="targetPoint" />
            <Array as="points">
              <mxPoint x="-646" y="570" />
              <mxPoint x="-140" y="570" />
              <mxPoint x="200" y="570" />
            </Array>
          </mxGeometry>
        </mxCell>
        <mxCell id="ztzIx2R9RVlWwnKAtfwI-60" value="" style="endArrow=block;dashed=1;endFill=0;endSize=12;html=1;exitX=0.5;exitY=0;exitDx=0;exitDy=0;entryX=0.5;entryY=1;entryDx=0;entryDy=0;" parent="1" source="ztzIx2R9RVlWwnKAtfwI-44" target="ztzIx2R9RVlWwnKAtfwI-20" edge="1">
          <mxGeometry width="160" relative="1" as="geometry">
            <mxPoint x="-636" y="610" as="sourcePoint" />
            <mxPoint x="207" y="500" as="targetPoint" />
            <Array as="points">
              <mxPoint x="-836" y="570" />
              <mxPoint x="200" y="570" />
            </Array>
          </mxGeometry>
        </mxCell>
        <mxCell id="ztzIx2R9RVlWwnKAtfwI-61" value="" style="endArrow=block;dashed=1;endFill=0;endSize=12;html=1;exitX=0.25;exitY=0;exitDx=0;exitDy=0;entryX=0.5;entryY=1;entryDx=0;entryDy=0;" parent="1" source="ztzIx2R9RVlWwnKAtfwI-53" target="ztzIx2R9RVlWwnKAtfwI-20" edge="1">
          <mxGeometry width="160" relative="1" as="geometry">
            <mxPoint x="1134" y="610" as="sourcePoint" />
            <mxPoint x="207" y="500" as="targetPoint" />
            <Array as="points">
              <mxPoint x="880" y="570" />
              <mxPoint x="200" y="570" />
            </Array>
          </mxGeometry>
        </mxCell>
        <mxCell id="ztzIx2R9RVlWwnKAtfwI-62" value="" style="endArrow=block;dashed=1;endFill=0;endSize=12;html=1;exitX=0.25;exitY=0;exitDx=0;exitDy=0;entryX=0.5;entryY=1;entryDx=0;entryDy=0;" parent="1" source="ztzIx2R9RVlWwnKAtfwI-49" target="ztzIx2R9RVlWwnKAtfwI-20" edge="1">
          <mxGeometry width="160" relative="1" as="geometry">
            <mxPoint x="1134" y="610" as="sourcePoint" />
            <mxPoint x="207" y="500" as="targetPoint" />
            <Array as="points">
              <mxPoint x="1082" y="570" />
              <mxPoint x="200" y="570" />
            </Array>
          </mxGeometry>
        </mxCell>
        <mxCell id="ztzIx2R9RVlWwnKAtfwI-63" value="1" style="endArrow=open;html=1;endSize=12;startArrow=diamondThin;startSize=14;startFill=0;edgeStyle=orthogonalEdgeStyle;align=left;verticalAlign=bottom;exitX=0.5;exitY=0;exitDx=0;exitDy=0;entryX=0.994;entryY=0.576;entryDx=0;entryDy=0;entryPerimeter=0;" parent="1" source="ztzIx2R9RVlWwnKAtfwI-49" target="ztzIx2R9RVlWwnKAtfwI-20" edge="1">
          <mxGeometry x="0.875" y="10" relative="1" as="geometry">
            <mxPoint x="934" y="610" as="sourcePoint" />
            <mxPoint x="297" y="440" as="targetPoint" />
            <mxPoint as="offset" />
            <Array as="points">
              <mxPoint x="1124" y="439" />
            </Array>
          </mxGeometry>
        </mxCell>
        <mxCell id="ztzIx2R9RVlWwnKAtfwI-64" value="1" style="endArrow=open;html=1;endSize=12;startArrow=diamondThin;startSize=14;startFill=0;edgeStyle=orthogonalEdgeStyle;align=left;verticalAlign=bottom;exitX=0.25;exitY=0;exitDx=0;exitDy=0;entryX=0.001;entryY=0.693;entryDx=0;entryDy=0;entryPerimeter=0;" parent="1" source="ztzIx2R9RVlWwnKAtfwI-47" target="ztzIx2R9RVlWwnKAtfwI-20" edge="1">
          <mxGeometry x="0.8786" y="-7" relative="1" as="geometry">
            <mxPoint x="-405" y="610" as="sourcePoint" />
            <mxPoint x="117" y="440" as="targetPoint" />
            <mxPoint as="offset" />
          </mxGeometry>
        </mxCell>
        <mxCell id="ztzIx2R9RVlWwnKAtfwI-65" value="1" style="endArrow=open;html=1;endSize=12;startArrow=diamondThin;startSize=14;startFill=0;edgeStyle=orthogonalEdgeStyle;align=left;verticalAlign=bottom;exitX=0.595;exitY=0.01;exitDx=0;exitDy=0;entryX=-0.001;entryY=0.861;entryDx=0;entryDy=0;exitPerimeter=0;entryPerimeter=0;" parent="1" source="ztzIx2R9RVlWwnKAtfwI-44" target="ztzIx2R9RVlWwnKAtfwI-20" edge="1">
          <mxGeometry x="0.8786" y="-7" relative="1" as="geometry">
            <mxPoint x="-678" y="610" as="sourcePoint" />
            <mxPoint x="117" y="463" as="targetPoint" />
            <mxPoint as="offset" />
          </mxGeometry>
        </mxCell>
        <mxCell id="ztzIx2R9RVlWwnKAtfwI-66" value="" style="group" parent="1" vertex="1" connectable="0">
          <mxGeometry x="-743" y="790" width="180" height="120" as="geometry" />
        </mxCell>
        <mxCell id="ztzIx2R9RVlWwnKAtfwI-67" value="+ method(type): type" style="text;strokeColor=none;fillColor=none;align=left;verticalAlign=top;spacingLeft=4;spacingRight=4;overflow=hidden;rotatable=0;points=[[0,0.5],[1,0.5]];portConstraint=eastwest;" parent="ztzIx2R9RVlWwnKAtfwI-66" vertex="1">
          <mxGeometry y="60" width="180" height="50" as="geometry" />
        </mxCell>
        <mxCell id="ztzIx2R9RVlWwnKAtfwI-68" value="«interface»&lt;br&gt;&lt;b&gt;Type&lt;br&gt;&lt;br&gt;&lt;br&gt;&lt;br&gt;&lt;br&gt;&lt;br&gt;&lt;/b&gt;" style="html=1;" parent="ztzIx2R9RVlWwnKAtfwI-66" vertex="1">
          <mxGeometry width="180" height="120" as="geometry" />
        </mxCell>
        <mxCell id="ztzIx2R9RVlWwnKAtfwI-69" value="" style="line;strokeWidth=1;fillColor=none;align=left;verticalAlign=middle;spacingTop=-1;spacingLeft=3;spacingRight=3;rotatable=0;labelPosition=right;points=[];portConstraint=eastwest;" parent="ztzIx2R9RVlWwnKAtfwI-66" vertex="1">
          <mxGeometry y="50" width="180" height="8" as="geometry" />
        </mxCell>
        <mxCell id="ztzIx2R9RVlWwnKAtfwI-70" value="1" style="endArrow=open;html=1;endSize=12;startArrow=diamondThin;startSize=14;startFill=0;edgeStyle=orthogonalEdgeStyle;align=left;verticalAlign=bottom;exitX=0.333;exitY=0.786;exitDx=0;exitDy=0;entryX=0.394;entryY=-0.037;entryDx=0;entryDy=0;entryPerimeter=0;exitPerimeter=0;" parent="1" source="ztzIx2R9RVlWwnKAtfwI-48" target="ztzIx2R9RVlWwnKAtfwI-68" edge="1">
          <mxGeometry x="0.1364" y="-6" relative="1" as="geometry">
            <mxPoint x="-678" y="610" as="sourcePoint" />
            <mxPoint x="117" y="463" as="targetPoint" />
            <mxPoint as="offset" />
            <Array as="points">
              <mxPoint x="-674" y="690" />
              <mxPoint x="-672" y="690" />
              <mxPoint x="-672" y="786" />
            </Array>
          </mxGeometry>
        </mxCell>
        <mxCell id="ztzIx2R9RVlWwnKAtfwI-71" value="FunctionInvocation" style="swimlane;fontStyle=1;align=center;verticalAlign=top;childLayout=stackLayout;horizontal=1;startSize=26;horizontalStack=0;resizeParent=1;resizeParentMax=0;resizeLast=0;collapsible=1;marginBottom=0;" parent="1" vertex="1">
          <mxGeometry x="330" y="736" width="167" height="34" as="geometry" />
        </mxCell>
        <mxCell id="ztzIx2R9RVlWwnKAtfwI-72" value="" style="line;strokeWidth=1;fillColor=none;align=left;verticalAlign=middle;spacingTop=-1;spacingLeft=3;spacingRight=3;rotatable=0;labelPosition=right;points=[];portConstraint=eastwest;" parent="ztzIx2R9RVlWwnKAtfwI-71" vertex="1">
          <mxGeometry y="26" width="167" height="8" as="geometry" />
        </mxCell>
        <mxCell id="ztzIx2R9RVlWwnKAtfwI-73" value="*" style="endArrow=open;html=1;endSize=12;startArrow=diamondThin;startSize=14;startFill=0;edgeStyle=orthogonalEdgeStyle;align=left;verticalAlign=bottom;exitX=0.5;exitY=0;exitDx=0;exitDy=0;entryX=1.008;entryY=0.861;entryDx=0;entryDy=0;entryPerimeter=0;" parent="1" source="ztzIx2R9RVlWwnKAtfwI-71" target="ztzIx2R9RVlWwnKAtfwI-20" edge="1">
          <mxGeometry x="0.7702" y="17" relative="1" as="geometry">
            <mxPoint x="758" y="610" as="sourcePoint" />
            <mxPoint x="297" y="430" as="targetPoint" />
            <mxPoint as="offset" />
            <Array as="points">
              <mxPoint x="414" y="473" />
            </Array>
          </mxGeometry>
        </mxCell>
        <mxCell id="ztzIx2R9RVlWwnKAtfwI-74" value="1" style="endArrow=open;html=1;endSize=12;startArrow=diamondThin;startSize=14;startFill=0;edgeStyle=orthogonalEdgeStyle;align=left;verticalAlign=bottom;entryX=0.898;entryY=0.896;entryDx=0;entryDy=0;entryPerimeter=0;exitX=0.25;exitY=0;exitDx=0;exitDy=0;" parent="1" source="ztzIx2R9RVlWwnKAtfwI-71" target="ztzIx2R9RVlWwnKAtfwI-11" edge="1">
          <mxGeometry x="0.2347" y="10" relative="1" as="geometry">
            <mxPoint x="360" y="700" as="sourcePoint" />
            <mxPoint x="298" y="483" as="targetPoint" />
            <mxPoint as="offset" />
            <Array as="points">
              <mxPoint x="372" y="700" />
              <mxPoint x="380" y="700" />
            </Array>
          </mxGeometry>
        </mxCell>
        <mxCell id="ztzIx2R9RVlWwnKAtfwI-75" value="Logical" style="swimlane;fontStyle=1;align=center;verticalAlign=top;childLayout=stackLayout;horizontal=1;startSize=26;horizontalStack=0;resizeParent=1;resizeParentMax=0;resizeLast=0;collapsible=1;marginBottom=0;" parent="1" vertex="1">
          <mxGeometry x="780" y="700" width="167" height="60" as="geometry" />
        </mxCell>
        <mxCell id="ztzIx2R9RVlWwnKAtfwI-76" value="- operator: String" style="text;strokeColor=none;fillColor=none;align=left;verticalAlign=top;spacingLeft=4;spacingRight=4;overflow=hidden;rotatable=0;points=[[0,0.5],[1,0.5]];portConstraint=eastwest;" parent="ztzIx2R9RVlWwnKAtfwI-75" vertex="1">
          <mxGeometry y="26" width="167" height="26" as="geometry" />
        </mxCell>
        <mxCell id="ztzIx2R9RVlWwnKAtfwI-77" value="" style="line;strokeWidth=1;fillColor=none;align=left;verticalAlign=middle;spacingTop=-1;spacingLeft=3;spacingRight=3;rotatable=0;labelPosition=right;points=[];portConstraint=eastwest;" parent="ztzIx2R9RVlWwnKAtfwI-75" vertex="1">
          <mxGeometry y="52" width="167" height="8" as="geometry" />
        </mxCell>
        <mxCell id="ztzIx2R9RVlWwnKAtfwI-78" value="2" style="endArrow=open;html=1;endSize=12;startArrow=diamondThin;startSize=14;startFill=0;edgeStyle=orthogonalEdgeStyle;align=left;verticalAlign=bottom;entryX=1;entryY=0.5;entryDx=0;entryDy=0;" parent="1" target="ztzIx2R9RVlWwnKAtfwI-19" edge="1">
          <mxGeometry x="0.875" y="10" relative="1" as="geometry">
            <mxPoint x="830" y="700" as="sourcePoint" />
            <mxPoint x="297" y="440" as="targetPoint" />
            <mxPoint as="offset" />
            <Array as="points">
              <mxPoint x="830" y="700" />
              <mxPoint x="830" y="455" />
            </Array>
          </mxGeometry>
        </mxCell>
        <mxCell id="ztzIx2R9RVlWwnKAtfwI-79" value="" style="endArrow=block;dashed=1;endFill=0;endSize=12;html=1;exitX=0.25;exitY=0;exitDx=0;exitDy=0;entryX=0.5;entryY=1;entryDx=0;entryDy=0;" parent="1" source="ztzIx2R9RVlWwnKAtfwI-75" target="ztzIx2R9RVlWwnKAtfwI-20" edge="1">
          <mxGeometry width="160" relative="1" as="geometry">
            <mxPoint x="1092" y="610" as="sourcePoint" />
            <mxPoint x="207" y="500" as="targetPoint" />
            <Array as="points">
              <mxPoint x="822" y="570" />
              <mxPoint x="200" y="570" />
            </Array>
          </mxGeometry>
        </mxCell>
        <mxCell id="ztzIx2R9RVlWwnKAtfwI-80" value="Modulus" style="swimlane;fontStyle=1;align=center;verticalAlign=top;childLayout=stackLayout;horizontal=1;startSize=26;horizontalStack=0;resizeParent=1;resizeParentMax=0;resizeLast=0;collapsible=1;marginBottom=0;" parent="1" vertex="1">
          <mxGeometry x="583" y="736" width="167" height="34" as="geometry" />
        </mxCell>
        <mxCell id="ztzIx2R9RVlWwnKAtfwI-81" value="" style="line;strokeWidth=1;fillColor=none;align=left;verticalAlign=middle;spacingTop=-1;spacingLeft=3;spacingRight=3;rotatable=0;labelPosition=right;points=[];portConstraint=eastwest;" parent="ztzIx2R9RVlWwnKAtfwI-80" vertex="1">
          <mxGeometry y="26" width="167" height="8" as="geometry" />
        </mxCell>
        <mxCell id="ztzIx2R9RVlWwnKAtfwI-82" value="2" style="endArrow=open;html=1;endSize=12;startArrow=diamondThin;startSize=14;startFill=0;edgeStyle=orthogonalEdgeStyle;align=left;verticalAlign=bottom;exitX=0.357;exitY=-0.014;exitDx=0;exitDy=0;entryX=0.999;entryY=0.683;entryDx=0;entryDy=0;exitPerimeter=0;entryPerimeter=0;" parent="1" source="ztzIx2R9RVlWwnKAtfwI-80" target="ztzIx2R9RVlWwnKAtfwI-19" edge="1">
          <mxGeometry x="0.875" y="10" relative="1" as="geometry">
            <mxPoint x="849" y="710" as="sourcePoint" />
            <mxPoint x="297" y="465" as="targetPoint" />
            <mxPoint as="offset" />
            <Array as="points">
              <mxPoint x="643" y="464" />
            </Array>
          </mxGeometry>
        </mxCell>
        <mxCell id="ztzIx2R9RVlWwnKAtfwI-83" value="" style="endArrow=block;dashed=1;endFill=0;endSize=12;html=1;exitX=0.297;exitY=-0.017;exitDx=0;exitDy=0;entryX=0.5;entryY=1;entryDx=0;entryDy=0;exitPerimeter=0;" parent="1" source="ztzIx2R9RVlWwnKAtfwI-80" target="ztzIx2R9RVlWwnKAtfwI-20" edge="1">
          <mxGeometry width="160" relative="1" as="geometry">
            <mxPoint x="832" y="710" as="sourcePoint" />
            <mxPoint x="207" y="500" as="targetPoint" />
            <Array as="points">
              <mxPoint x="630" y="570" />
              <mxPoint x="197" y="570" />
            </Array>
          </mxGeometry>
        </mxCell>
        <mxCell id="ztzIx2R9RVlWwnKAtfwI-84" value="" style="endArrow=block;dashed=1;endFill=0;endSize=12;html=1;exitX=0.615;exitY=-0.029;exitDx=0;exitDy=0;exitPerimeter=0;entryX=0.5;entryY=1;entryDx=0;entryDy=0;" parent="1" source="ztzIx2R9RVlWwnKAtfwI-71" target="ztzIx2R9RVlWwnKAtfwI-20" edge="1">
          <mxGeometry width="160" relative="1" as="geometry">
            <mxPoint x="643" y="745" as="sourcePoint" />
            <mxPoint x="200" y="490" as="targetPoint" />
            <Array as="points">
              <mxPoint x="433" y="570" />
              <mxPoint x="200" y="570" />
            </Array>
          </mxGeometry>
        </mxCell>
        <mxCell id="N8_ICosOua3qQJx38BLM-1" value="" style="group" vertex="1" connectable="0" parent="1">
          <mxGeometry x="107" y="90" width="180" height="120" as="geometry" />
        </mxCell>
        <mxCell id="N8_ICosOua3qQJx38BLM-2" value="+ method(type): type" style="text;strokeColor=none;fillColor=none;align=left;verticalAlign=top;spacingLeft=4;spacingRight=4;overflow=hidden;rotatable=0;points=[[0,0.5],[1,0.5]];portConstraint=eastwest;" vertex="1" parent="N8_ICosOua3qQJx38BLM-1">
          <mxGeometry y="60" width="180" height="50" as="geometry" />
        </mxCell>
        <mxCell id="N8_ICosOua3qQJx38BLM-3" value="«interface»&lt;br&gt;&lt;b&gt;ASTNode&lt;br&gt;&lt;br&gt;&lt;br&gt;&lt;br&gt;&lt;br&gt;&lt;br&gt;&lt;/b&gt;" style="html=1;" vertex="1" parent="N8_ICosOua3qQJx38BLM-1">
          <mxGeometry width="180" height="120" as="geometry" />
        </mxCell>
        <mxCell id="N8_ICosOua3qQJx38BLM-4" value="" style="line;strokeWidth=1;fillColor=none;align=left;verticalAlign=middle;spacingTop=-1;spacingLeft=3;spacingRight=3;rotatable=0;labelPosition=right;points=[];portConstraint=eastwest;" vertex="1" parent="N8_ICosOua3qQJx38BLM-1">
          <mxGeometry y="50" width="180" height="8" as="geometry" />
        </mxCell>
        <mxCell id="N8_ICosOua3qQJx38BLM-5" value="+ getLine(): int&#xa;+ getColumn():int&#xa;+ accept(Visitor v, TP p): TR" style="text;strokeColor=none;fillColor=none;align=left;verticalAlign=top;spacingLeft=4;spacingRight=4;overflow=hidden;rotatable=0;points=[[0,0.5],[1,0.5]];portConstraint=eastwest;" vertex="1" parent="N8_ICosOua3qQJx38BLM-1">
          <mxGeometry y="60" width="180" height="50" as="geometry" />
        </mxCell>
        <mxCell id="3_yE7wfy4IqBnz8GA9jQ-1" value="Indexing" style="swimlane;fontStyle=1;align=center;verticalAlign=top;childLayout=stackLayout;horizontal=1;startSize=26;horizontalStack=0;resizeParent=1;resizeParentMax=0;resizeLast=0;collapsible=1;marginBottom=0;" vertex="1" parent="1">
          <mxGeometry x="-530" y="600" width="167" height="34" as="geometry" />
        </mxCell>
        <mxCell id="3_yE7wfy4IqBnz8GA9jQ-2" value="" style="line;strokeWidth=1;fillColor=none;align=left;verticalAlign=middle;spacingTop=-1;spacingLeft=3;spacingRight=3;rotatable=0;labelPosition=right;points=[];portConstraint=eastwest;" vertex="1" parent="3_yE7wfy4IqBnz8GA9jQ-1">
          <mxGeometry y="26" width="167" height="8" as="geometry" />
        </mxCell>
      </root>
    </mxGraphModel>
  </diagram>
  <diagram id="ewJ1mW1KC7RpW_npDl96" name="Statement">
    <mxGraphModel dx="1877" dy="522" grid="1" gridSize="10" guides="1" tooltips="1" connect="1" arrows="1" fold="1" page="1" pageScale="1" pageWidth="827" pageHeight="1169" math="0" shadow="0">
      <root>
        <mxCell id="0" />
        <mxCell id="1" parent="0" />
        <mxCell id="e4NAoapZXCy2GDqeK4FB-1" value="Assignment" style="swimlane;fontStyle=1;align=center;verticalAlign=top;childLayout=stackLayout;horizontal=1;startSize=26;horizontalStack=0;resizeParent=1;resizeParentMax=0;resizeLast=0;collapsible=1;marginBottom=0;" parent="1" vertex="1">
          <mxGeometry x="316.5" y="510" width="167" height="34" as="geometry" />
        </mxCell>
        <mxCell id="e4NAoapZXCy2GDqeK4FB-2" value="" style="line;strokeWidth=1;fillColor=none;align=left;verticalAlign=middle;spacingTop=-1;spacingLeft=3;spacingRight=3;rotatable=0;labelPosition=right;points=[];portConstraint=eastwest;" parent="e4NAoapZXCy2GDqeK4FB-1" vertex="1">
          <mxGeometry y="26" width="167" height="8" as="geometry" />
        </mxCell>
        <mxCell id="e4NAoapZXCy2GDqeK4FB-3" value="" style="group" parent="1" vertex="1" connectable="0">
          <mxGeometry x="310" y="310" width="180" height="120" as="geometry" />
        </mxCell>
        <mxCell id="e4NAoapZXCy2GDqeK4FB-4" value="+ method(type): type" style="text;strokeColor=none;fillColor=none;align=left;verticalAlign=top;spacingLeft=4;spacingRight=4;overflow=hidden;rotatable=0;points=[[0,0.5],[1,0.5]];portConstraint=eastwest;" parent="e4NAoapZXCy2GDqeK4FB-3" vertex="1">
          <mxGeometry y="60" width="180" height="50" as="geometry" />
        </mxCell>
        <mxCell id="e4NAoapZXCy2GDqeK4FB-5" value="«interface»&lt;br&gt;&lt;b&gt;Statement&lt;br&gt;&lt;br&gt;&lt;br&gt;&lt;br&gt;&lt;br&gt;&lt;br&gt;&lt;/b&gt;" style="html=1;" parent="e4NAoapZXCy2GDqeK4FB-3" vertex="1">
          <mxGeometry width="180" height="120" as="geometry" />
        </mxCell>
        <mxCell id="e4NAoapZXCy2GDqeK4FB-6" value="" style="line;strokeWidth=1;fillColor=none;align=left;verticalAlign=middle;spacingTop=-1;spacingLeft=3;spacingRight=3;rotatable=0;labelPosition=right;points=[];portConstraint=eastwest;" parent="e4NAoapZXCy2GDqeK4FB-3" vertex="1">
          <mxGeometry y="50" width="180" height="8" as="geometry" />
        </mxCell>
        <mxCell id="e4NAoapZXCy2GDqeK4FB-7" value="" style="endArrow=block;dashed=1;endFill=0;endSize=12;html=1;entryX=0.5;entryY=1;entryDx=0;entryDy=0;exitX=0.5;exitY=0;exitDx=0;exitDy=0;" parent="1" source="e4NAoapZXCy2GDqeK4FB-1" target="e4NAoapZXCy2GDqeK4FB-5" edge="1">
          <mxGeometry width="160" relative="1" as="geometry">
            <mxPoint x="150" y="600" as="sourcePoint" />
            <mxPoint x="310" y="600" as="targetPoint" />
          </mxGeometry>
        </mxCell>
        <mxCell id="e4NAoapZXCy2GDqeK4FB-8" value="" style="group" parent="1" vertex="1" connectable="0">
          <mxGeometry x="600" y="510" width="180" height="120" as="geometry" />
        </mxCell>
        <mxCell id="e4NAoapZXCy2GDqeK4FB-9" value="+ method(type): type" style="text;strokeColor=none;fillColor=none;align=left;verticalAlign=top;spacingLeft=4;spacingRight=4;overflow=hidden;rotatable=0;points=[[0,0.5],[1,0.5]];portConstraint=eastwest;" parent="e4NAoapZXCy2GDqeK4FB-8" vertex="1">
          <mxGeometry y="60" width="180" height="50" as="geometry" />
        </mxCell>
        <mxCell id="e4NAoapZXCy2GDqeK4FB-10" value="«interface»&lt;br&gt;&lt;b&gt;Expression&lt;br&gt;&lt;br&gt;&lt;br&gt;&lt;br&gt;&lt;br&gt;&lt;br&gt;&lt;/b&gt;" style="html=1;" parent="e4NAoapZXCy2GDqeK4FB-8" vertex="1">
          <mxGeometry width="180" height="120" as="geometry" />
        </mxCell>
        <mxCell id="e4NAoapZXCy2GDqeK4FB-11" value="" style="line;strokeWidth=1;fillColor=none;align=left;verticalAlign=middle;spacingTop=-1;spacingLeft=3;spacingRight=3;rotatable=0;labelPosition=right;points=[];portConstraint=eastwest;" parent="e4NAoapZXCy2GDqeK4FB-8" vertex="1">
          <mxGeometry y="50" width="180" height="8" as="geometry" />
        </mxCell>
        <mxCell id="e4NAoapZXCy2GDqeK4FB-12" value="2" style="endArrow=open;html=1;endSize=12;startArrow=diamondThin;startSize=14;startFill=0;edgeStyle=orthogonalEdgeStyle;align=left;verticalAlign=bottom;exitX=1;exitY=0.5;exitDx=0;exitDy=0;entryX=-0.006;entryY=0.45;entryDx=0;entryDy=0;entryPerimeter=0;" parent="1" source="e4NAoapZXCy2GDqeK4FB-1" target="e4NAoapZXCy2GDqeK4FB-10" edge="1">
          <mxGeometry x="0.5617" y="20" relative="1" as="geometry">
            <mxPoint x="483.5" y="549" as="sourcePoint" />
            <mxPoint x="560" y="660" as="targetPoint" />
            <mxPoint as="offset" />
          </mxGeometry>
        </mxCell>
        <mxCell id="e4NAoapZXCy2GDqeK4FB-13" value="Write" style="swimlane;fontStyle=1;align=center;verticalAlign=top;childLayout=stackLayout;horizontal=1;startSize=26;horizontalStack=0;resizeParent=1;resizeParentMax=0;resizeLast=0;collapsible=1;marginBottom=0;" parent="1" vertex="1">
          <mxGeometry x="130" y="510" width="167" height="34" as="geometry" />
        </mxCell>
        <mxCell id="e4NAoapZXCy2GDqeK4FB-14" value="" style="line;strokeWidth=1;fillColor=none;align=left;verticalAlign=middle;spacingTop=-1;spacingLeft=3;spacingRight=3;rotatable=0;labelPosition=right;points=[];portConstraint=eastwest;" parent="e4NAoapZXCy2GDqeK4FB-13" vertex="1">
          <mxGeometry y="26" width="167" height="8" as="geometry" />
        </mxCell>
        <mxCell id="e4NAoapZXCy2GDqeK4FB-15" value="Read" style="swimlane;fontStyle=1;align=center;verticalAlign=top;childLayout=stackLayout;horizontal=1;startSize=26;horizontalStack=0;resizeParent=1;resizeParentMax=0;resizeLast=0;collapsible=1;marginBottom=0;" parent="1" vertex="1">
          <mxGeometry x="-60" y="510" width="167" height="34" as="geometry" />
        </mxCell>
        <mxCell id="e4NAoapZXCy2GDqeK4FB-16" value="" style="line;strokeWidth=1;fillColor=none;align=left;verticalAlign=middle;spacingTop=-1;spacingLeft=3;spacingRight=3;rotatable=0;labelPosition=right;points=[];portConstraint=eastwest;" parent="e4NAoapZXCy2GDqeK4FB-15" vertex="1">
          <mxGeometry y="26" width="167" height="8" as="geometry" />
        </mxCell>
        <mxCell id="e4NAoapZXCy2GDqeK4FB-17" value="1" style="endArrow=open;html=1;endSize=12;startArrow=diamondThin;startSize=14;startFill=0;edgeStyle=orthogonalEdgeStyle;align=left;verticalAlign=bottom;exitX=0.479;exitY=1.125;exitDx=0;exitDy=0;entryX=0;entryY=0.75;entryDx=0;entryDy=0;exitPerimeter=0;" parent="1" source="e4NAoapZXCy2GDqeK4FB-14" target="e4NAoapZXCy2GDqeK4FB-10" edge="1">
          <mxGeometry x="0.8202" y="-10" relative="1" as="geometry">
            <mxPoint x="210.15999999999985" y="572.808" as="sourcePoint" />
            <mxPoint x="296.5" y="675" as="targetPoint" />
            <mxPoint as="offset" />
            <Array as="points">
              <mxPoint x="210" y="600" />
            </Array>
          </mxGeometry>
        </mxCell>
        <mxCell id="e4NAoapZXCy2GDqeK4FB-18" value="" style="endArrow=block;dashed=1;endFill=0;endSize=12;html=1;entryX=0.5;entryY=1;entryDx=0;entryDy=0;exitX=0.5;exitY=0;exitDx=0;exitDy=0;" parent="1" source="e4NAoapZXCy2GDqeK4FB-13" target="e4NAoapZXCy2GDqeK4FB-5" edge="1">
          <mxGeometry width="160" relative="1" as="geometry">
            <mxPoint x="410" y="520" as="sourcePoint" />
            <mxPoint x="410" y="450" as="targetPoint" />
            <Array as="points">
              <mxPoint x="213" y="490" />
              <mxPoint x="400" y="490" />
            </Array>
          </mxGeometry>
        </mxCell>
        <mxCell id="e4NAoapZXCy2GDqeK4FB-19" value="" style="endArrow=block;dashed=1;endFill=0;endSize=12;html=1;entryX=0.5;entryY=1;entryDx=0;entryDy=0;exitX=0.5;exitY=0;exitDx=0;exitDy=0;" parent="1" source="e4NAoapZXCy2GDqeK4FB-15" target="e4NAoapZXCy2GDqeK4FB-5" edge="1">
          <mxGeometry width="160" relative="1" as="geometry">
            <mxPoint x="223" y="520" as="sourcePoint" />
            <mxPoint x="410" y="450" as="targetPoint" />
            <Array as="points">
              <mxPoint x="24" y="490" />
              <mxPoint x="400" y="490" />
            </Array>
          </mxGeometry>
        </mxCell>
        <mxCell id="e4NAoapZXCy2GDqeK4FB-20" value="1" style="endArrow=open;html=1;endSize=12;startArrow=diamondThin;startSize=14;startFill=0;edgeStyle=orthogonalEdgeStyle;align=left;verticalAlign=bottom;exitX=0.455;exitY=1;exitDx=0;exitDy=0;entryX=0.128;entryY=0.987;entryDx=0;entryDy=0;exitPerimeter=0;entryPerimeter=0;" parent="1" source="e4NAoapZXCy2GDqeK4FB-16" target="e4NAoapZXCy2GDqeK4FB-10" edge="1">
          <mxGeometry x="0.8514" y="-10" relative="1" as="geometry">
            <mxPoint x="15.317000000000007" y="571.664" as="sourcePoint" />
            <mxPoint x="700" y="640" as="targetPoint" />
            <mxPoint as="offset" />
            <Array as="points">
              <mxPoint x="16" y="650" />
              <mxPoint x="623" y="650" />
            </Array>
          </mxGeometry>
        </mxCell>
        <mxCell id="e4NAoapZXCy2GDqeK4FB-21" value="ConditionalStatement&#xa;" style="swimlane;fontStyle=1;align=center;verticalAlign=top;childLayout=stackLayout;horizontal=1;startSize=26;horizontalStack=0;resizeParent=1;resizeParentMax=0;resizeLast=0;collapsible=1;marginBottom=0;" parent="1" vertex="1">
          <mxGeometry x="-250" y="510" width="167" height="34" as="geometry" />
        </mxCell>
        <mxCell id="e4NAoapZXCy2GDqeK4FB-22" value="" style="line;strokeWidth=1;fillColor=none;align=left;verticalAlign=middle;spacingTop=-1;spacingLeft=3;spacingRight=3;rotatable=0;labelPosition=right;points=[];portConstraint=eastwest;" parent="e4NAoapZXCy2GDqeK4FB-21" vertex="1">
          <mxGeometry y="26" width="167" height="8" as="geometry" />
        </mxCell>
        <mxCell id="e4NAoapZXCy2GDqeK4FB-23" value="" style="endArrow=block;dashed=1;endFill=0;endSize=12;html=1;entryX=0.5;entryY=1;entryDx=0;entryDy=0;exitX=0.5;exitY=0;exitDx=0;exitDy=0;" parent="1" source="e4NAoapZXCy2GDqeK4FB-21" target="e4NAoapZXCy2GDqeK4FB-5" edge="1">
          <mxGeometry width="160" relative="1" as="geometry">
            <mxPoint x="34" y="520" as="sourcePoint" />
            <mxPoint x="410" y="450" as="targetPoint" />
            <Array as="points">
              <mxPoint x="-166" y="490" />
              <mxPoint x="400" y="490" />
            </Array>
          </mxGeometry>
        </mxCell>
        <mxCell id="e4NAoapZXCy2GDqeK4FB-24" value="ReturnStatement" style="swimlane;fontStyle=1;align=center;verticalAlign=top;childLayout=stackLayout;horizontal=1;startSize=26;horizontalStack=0;resizeParent=1;resizeParentMax=0;resizeLast=0;collapsible=1;marginBottom=0;" parent="1" vertex="1">
          <mxGeometry x="-440" y="510" width="167" height="34" as="geometry" />
        </mxCell>
        <mxCell id="e4NAoapZXCy2GDqeK4FB-25" value="" style="line;strokeWidth=1;fillColor=none;align=left;verticalAlign=middle;spacingTop=-1;spacingLeft=3;spacingRight=3;rotatable=0;labelPosition=right;points=[];portConstraint=eastwest;" parent="e4NAoapZXCy2GDqeK4FB-24" vertex="1">
          <mxGeometry y="26" width="167" height="8" as="geometry" />
        </mxCell>
        <mxCell id="e4NAoapZXCy2GDqeK4FB-26" value="1" style="endArrow=open;html=1;endSize=12;startArrow=diamondThin;startSize=14;startFill=0;edgeStyle=orthogonalEdgeStyle;align=left;verticalAlign=bottom;entryX=0.621;entryY=0.993;entryDx=0;entryDy=0;entryPerimeter=0;exitX=0.75;exitY=1;exitDx=0;exitDy=0;" parent="1" source="e4NAoapZXCy2GDqeK4FB-24" target="e4NAoapZXCy2GDqeK4FB-10" edge="1">
          <mxGeometry x="0.94" y="6" relative="1" as="geometry">
            <mxPoint x="-340" y="550" as="sourcePoint" />
            <mxPoint x="700" y="640" as="targetPoint" />
            <mxPoint as="offset" />
            <Array as="points">
              <mxPoint x="-315" y="690" />
              <mxPoint x="712" y="690" />
            </Array>
          </mxGeometry>
        </mxCell>
        <mxCell id="e4NAoapZXCy2GDqeK4FB-27" value="" style="endArrow=block;dashed=1;endFill=0;endSize=12;html=1;entryX=0.5;entryY=1;entryDx=0;entryDy=0;exitX=0.5;exitY=0;exitDx=0;exitDy=0;" parent="1" source="e4NAoapZXCy2GDqeK4FB-24" target="e4NAoapZXCy2GDqeK4FB-5" edge="1">
          <mxGeometry width="160" relative="1" as="geometry">
            <mxPoint x="-156" y="520" as="sourcePoint" />
            <mxPoint x="410" y="450" as="targetPoint" />
            <Array as="points">
              <mxPoint x="-356" y="490" />
              <mxPoint x="400" y="490" />
            </Array>
          </mxGeometry>
        </mxCell>
        <mxCell id="e4NAoapZXCy2GDqeK4FB-33" value="" style="endArrow=block;dashed=1;endFill=0;endSize=12;html=1;entryX=0.5;entryY=1;entryDx=0;entryDy=0;exitX=0.5;exitY=0;exitDx=0;exitDy=0;" parent="1" source="e4NAoapZXCy2GDqeK4FB-5" edge="1">
          <mxGeometry width="160" relative="1" as="geometry">
            <mxPoint x="80" y="460" as="sourcePoint" />
            <mxPoint x="400" y="240" as="targetPoint" />
          </mxGeometry>
        </mxCell>
        <mxCell id="e4NAoapZXCy2GDqeK4FB-34" value="1" style="endArrow=open;html=1;endSize=12;startArrow=diamondThin;startSize=14;startFill=0;edgeStyle=orthogonalEdgeStyle;align=left;verticalAlign=bottom;entryX=0.372;entryY=1.033;entryDx=0;entryDy=0;entryPerimeter=0;exitX=0.5;exitY=1;exitDx=0;exitDy=0;" parent="1" source="e4NAoapZXCy2GDqeK4FB-21" target="e4NAoapZXCy2GDqeK4FB-10" edge="1">
          <mxGeometry x="0.94" y="6" relative="1" as="geometry">
            <mxPoint x="-166.66699999999992" y="599.588" as="sourcePoint" />
            <mxPoint x="726" y="643" as="targetPoint" />
            <mxPoint as="offset" />
            <Array as="points">
              <mxPoint x="-166" y="670" />
              <mxPoint x="667" y="670" />
            </Array>
          </mxGeometry>
        </mxCell>
        <mxCell id="e4NAoapZXCy2GDqeK4FB-35" value="FunctionInvocation" style="swimlane;fontStyle=1;align=center;verticalAlign=top;childLayout=stackLayout;horizontal=1;startSize=26;horizontalStack=0;resizeParent=1;resizeParentMax=0;resizeLast=0;collapsible=1;marginBottom=0;" parent="1" vertex="1">
          <mxGeometry x="-630" y="510" width="167" height="34" as="geometry" />
        </mxCell>
        <mxCell id="e4NAoapZXCy2GDqeK4FB-36" value="" style="line;strokeWidth=1;fillColor=none;align=left;verticalAlign=middle;spacingTop=-1;spacingLeft=3;spacingRight=3;rotatable=0;labelPosition=right;points=[];portConstraint=eastwest;" parent="e4NAoapZXCy2GDqeK4FB-35" vertex="1">
          <mxGeometry y="26" width="167" height="8" as="geometry" />
        </mxCell>
        <mxCell id="e4NAoapZXCy2GDqeK4FB-37" value="While" style="swimlane;fontStyle=1;align=center;verticalAlign=top;childLayout=stackLayout;horizontal=1;startSize=26;horizontalStack=0;resizeParent=1;resizeParentMax=0;resizeLast=0;collapsible=1;marginBottom=0;" parent="1" vertex="1">
          <mxGeometry x="603" y="380" width="167" height="34" as="geometry" />
        </mxCell>
        <mxCell id="e4NAoapZXCy2GDqeK4FB-38" value="" style="line;strokeWidth=1;fillColor=none;align=left;verticalAlign=middle;spacingTop=-1;spacingLeft=3;spacingRight=3;rotatable=0;labelPosition=right;points=[];portConstraint=eastwest;" parent="e4NAoapZXCy2GDqeK4FB-37" vertex="1">
          <mxGeometry y="26" width="167" height="8" as="geometry" />
        </mxCell>
        <mxCell id="e4NAoapZXCy2GDqeK4FB-39" value="" style="endArrow=block;dashed=1;endFill=0;endSize=12;html=1;entryX=1;entryY=0.75;entryDx=0;entryDy=0;exitX=-0.006;exitY=0.151;exitDx=0;exitDy=0;exitPerimeter=0;" parent="1" source="e4NAoapZXCy2GDqeK4FB-37" target="e4NAoapZXCy2GDqeK4FB-5" edge="1">
          <mxGeometry width="160" relative="1" as="geometry">
            <mxPoint x="-726" y="520" as="sourcePoint" />
            <mxPoint x="410" y="440" as="targetPoint" />
            <Array as="points">
              <mxPoint x="530" y="380" />
            </Array>
          </mxGeometry>
        </mxCell>
        <mxCell id="e4NAoapZXCy2GDqeK4FB-40" value="*" style="endArrow=open;html=1;endSize=12;startArrow=diamondThin;startSize=14;startFill=0;edgeStyle=orthogonalEdgeStyle;align=left;verticalAlign=bottom;exitX=0.018;exitY=0.5;exitDx=0;exitDy=0;entryX=1;entryY=0.96;entryDx=0;entryDy=0;entryPerimeter=0;exitPerimeter=0;" parent="1" source="e4NAoapZXCy2GDqeK4FB-38" target="e4NAoapZXCy2GDqeK4FB-4" edge="1">
          <mxGeometry x="0.5617" y="20" relative="1" as="geometry">
            <mxPoint x="494" y="559" as="sourcePoint" />
            <mxPoint x="609" y="574" as="targetPoint" />
            <mxPoint as="offset" />
          </mxGeometry>
        </mxCell>
        <mxCell id="e4NAoapZXCy2GDqeK4FB-41" value="1" style="endArrow=open;html=1;endSize=12;startArrow=diamondThin;startSize=14;startFill=0;edgeStyle=orthogonalEdgeStyle;align=left;verticalAlign=bottom;exitX=1;exitY=0.5;exitDx=0;exitDy=0;entryX=0.311;entryY=0.008;entryDx=0;entryDy=0;entryPerimeter=0;" parent="1" source="e4NAoapZXCy2GDqeK4FB-37" target="e4NAoapZXCy2GDqeK4FB-10" edge="1">
          <mxGeometry x="0.785" y="-6" relative="1" as="geometry">
            <mxPoint x="616" y="420" as="sourcePoint" />
            <mxPoint x="500" y="428" as="targetPoint" />
            <mxPoint as="offset" />
            <Array as="points">
              <mxPoint x="800" y="397" />
              <mxPoint x="800" y="462" />
              <mxPoint x="656" y="462" />
            </Array>
          </mxGeometry>
        </mxCell>
        <mxCell id="e4NAoapZXCy2GDqeK4FB-42" value="" style="endArrow=block;dashed=1;endFill=0;endSize=12;html=1;entryX=0.5;entryY=1;entryDx=0;entryDy=0;exitX=0.5;exitY=0;exitDx=0;exitDy=0;" parent="1" source="e4NAoapZXCy2GDqeK4FB-35" target="e4NAoapZXCy2GDqeK4FB-5" edge="1">
          <mxGeometry width="160" relative="1" as="geometry">
            <mxPoint x="-726" y="520" as="sourcePoint" />
            <mxPoint x="410" y="440" as="targetPoint" />
            <Array as="points">
              <mxPoint x="-546" y="490" />
              <mxPoint x="400" y="490" />
            </Array>
          </mxGeometry>
        </mxCell>
        <mxCell id="e4NAoapZXCy2GDqeK4FB-43" value="*" style="endArrow=open;html=1;endSize=12;startArrow=diamondThin;startSize=14;startFill=0;edgeStyle=orthogonalEdgeStyle;align=left;verticalAlign=bottom;exitX=0.75;exitY=0;exitDx=0;exitDy=0;entryX=0;entryY=0.25;entryDx=0;entryDy=0;" parent="1" source="e4NAoapZXCy2GDqeK4FB-21" target="e4NAoapZXCy2GDqeK4FB-5" edge="1">
          <mxGeometry x="0.8677" y="-10" relative="1" as="geometry">
            <mxPoint x="-170" y="380" as="sourcePoint" />
            <mxPoint x="-10" y="380" as="targetPoint" />
            <mxPoint as="offset" />
          </mxGeometry>
        </mxCell>
        <mxCell id="e4NAoapZXCy2GDqeK4FB-44" value="if" style="edgeLabel;html=1;align=center;verticalAlign=middle;resizable=0;points=[];" parent="e4NAoapZXCy2GDqeK4FB-43" vertex="1" connectable="0">
          <mxGeometry x="-0.5601" y="1" relative="1" as="geometry">
            <mxPoint as="offset" />
          </mxGeometry>
        </mxCell>
        <mxCell id="e4NAoapZXCy2GDqeK4FB-45" value="*" style="endArrow=open;html=1;endSize=12;startArrow=diamondThin;startSize=14;startFill=0;edgeStyle=orthogonalEdgeStyle;align=left;verticalAlign=bottom;exitX=0.892;exitY=0;exitDx=0;exitDy=0;entryX=0;entryY=0.383;entryDx=0;entryDy=0;exitPerimeter=0;entryPerimeter=0;" parent="1" source="e4NAoapZXCy2GDqeK4FB-21" target="e4NAoapZXCy2GDqeK4FB-5" edge="1">
          <mxGeometry x="0.8584" y="-14" relative="1" as="geometry">
            <mxPoint x="-115" y="520" as="sourcePoint" />
            <mxPoint x="320" y="350" as="targetPoint" />
            <mxPoint as="offset" />
          </mxGeometry>
        </mxCell>
        <mxCell id="e4NAoapZXCy2GDqeK4FB-46" value="else" style="edgeLabel;html=1;align=center;verticalAlign=middle;resizable=0;points=[];" parent="e4NAoapZXCy2GDqeK4FB-45" vertex="1" connectable="0">
          <mxGeometry x="-0.7381" y="1" relative="1" as="geometry">
            <mxPoint as="offset" />
          </mxGeometry>
        </mxCell>
        <mxCell id="8F5HSuVdJM2aLxL8zhwK-1" value="" style="group" vertex="1" connectable="0" parent="1">
          <mxGeometry x="303.5" y="120" width="180" height="120" as="geometry" />
        </mxCell>
        <mxCell id="8F5HSuVdJM2aLxL8zhwK-2" value="+ method(type): type" style="text;strokeColor=none;fillColor=none;align=left;verticalAlign=top;spacingLeft=4;spacingRight=4;overflow=hidden;rotatable=0;points=[[0,0.5],[1,0.5]];portConstraint=eastwest;" vertex="1" parent="8F5HSuVdJM2aLxL8zhwK-1">
          <mxGeometry y="60" width="180" height="50" as="geometry" />
        </mxCell>
        <mxCell id="8F5HSuVdJM2aLxL8zhwK-3" value="«interface»&lt;br&gt;&lt;b&gt;ASTNode&lt;br&gt;&lt;br&gt;&lt;br&gt;&lt;br&gt;&lt;br&gt;&lt;br&gt;&lt;/b&gt;" style="html=1;" vertex="1" parent="8F5HSuVdJM2aLxL8zhwK-1">
          <mxGeometry width="180" height="120" as="geometry" />
        </mxCell>
        <mxCell id="8F5HSuVdJM2aLxL8zhwK-4" value="" style="line;strokeWidth=1;fillColor=none;align=left;verticalAlign=middle;spacingTop=-1;spacingLeft=3;spacingRight=3;rotatable=0;labelPosition=right;points=[];portConstraint=eastwest;" vertex="1" parent="8F5HSuVdJM2aLxL8zhwK-1">
          <mxGeometry y="50" width="180" height="8" as="geometry" />
        </mxCell>
        <mxCell id="8F5HSuVdJM2aLxL8zhwK-5" value="+ getLine(): int&#xa;+ getColumn():int&#xa;+accept(Visitor v, TP p): TR" style="text;strokeColor=none;fillColor=none;align=left;verticalAlign=top;spacingLeft=4;spacingRight=4;overflow=hidden;rotatable=0;points=[[0,0.5],[1,0.5]];portConstraint=eastwest;" vertex="1" parent="8F5HSuVdJM2aLxL8zhwK-1">
          <mxGeometry y="60" width="180" height="50" as="geometry" />
        </mxCell>
      </root>
    </mxGraphModel>
  </diagram>
  <diagram id="OX_K4wDaBpf2WVUGbycc" name="Type">
    <mxGraphModel dx="1702" dy="435" grid="1" gridSize="10" guides="1" tooltips="1" connect="1" arrows="1" fold="1" page="1" pageScale="1" pageWidth="827" pageHeight="1169" math="0" shadow="0">
      <root>
        <mxCell id="0" />
        <mxCell id="1" parent="0" />
        <mxCell id="8c5guxEhnHxBqYTD4iWY-2" value="" style="group" parent="1" vertex="1" connectable="0">
          <mxGeometry x="337" y="550" width="180" height="120" as="geometry" />
        </mxCell>
        <mxCell id="8c5guxEhnHxBqYTD4iWY-3" value="+ method(type): type" style="text;strokeColor=none;fillColor=none;align=left;verticalAlign=top;spacingLeft=4;spacingRight=4;overflow=hidden;rotatable=0;points=[[0,0.5],[1,0.5]];portConstraint=eastwest;" parent="8c5guxEhnHxBqYTD4iWY-2" vertex="1">
          <mxGeometry y="60" width="180" height="50" as="geometry" />
        </mxCell>
        <mxCell id="8c5guxEhnHxBqYTD4iWY-4" value="«interface»&lt;br&gt;&lt;b&gt;Type&lt;br&gt;&lt;br&gt;&lt;br&gt;&lt;br&gt;&lt;br&gt;&lt;br&gt;&lt;/b&gt;" style="html=1;" parent="8c5guxEhnHxBqYTD4iWY-2" vertex="1">
          <mxGeometry width="180" height="120" as="geometry" />
        </mxCell>
        <mxCell id="8c5guxEhnHxBqYTD4iWY-5" value="" style="line;strokeWidth=1;fillColor=none;align=left;verticalAlign=middle;spacingTop=-1;spacingLeft=3;spacingRight=3;rotatable=0;labelPosition=right;points=[];portConstraint=eastwest;" parent="8c5guxEhnHxBqYTD4iWY-2" vertex="1">
          <mxGeometry y="50" width="180" height="8" as="geometry" />
        </mxCell>
        <mxCell id="8c5guxEhnHxBqYTD4iWY-6" value="IntegerType" style="swimlane;fontStyle=1;align=center;verticalAlign=top;childLayout=stackLayout;horizontal=1;startSize=26;horizontalStack=0;resizeParent=1;resizeParentMax=0;resizeLast=0;collapsible=1;marginBottom=0;" parent="1" vertex="1">
          <mxGeometry x="160" y="740" width="167" height="34" as="geometry" />
        </mxCell>
        <mxCell id="8c5guxEhnHxBqYTD4iWY-7" value="" style="line;strokeWidth=1;fillColor=none;align=left;verticalAlign=middle;spacingTop=-1;spacingLeft=3;spacingRight=3;rotatable=0;labelPosition=right;points=[];portConstraint=eastwest;" parent="8c5guxEhnHxBqYTD4iWY-6" vertex="1">
          <mxGeometry y="26" width="167" height="8" as="geometry" />
        </mxCell>
        <mxCell id="8c5guxEhnHxBqYTD4iWY-8" value="DoubleType" style="swimlane;fontStyle=1;align=center;verticalAlign=top;childLayout=stackLayout;horizontal=1;startSize=26;horizontalStack=0;resizeParent=1;resizeParentMax=0;resizeLast=0;collapsible=1;marginBottom=0;" parent="1" vertex="1">
          <mxGeometry x="343.5" y="740" width="167" height="34" as="geometry" />
        </mxCell>
        <mxCell id="8c5guxEhnHxBqYTD4iWY-9" value="" style="line;strokeWidth=1;fillColor=none;align=left;verticalAlign=middle;spacingTop=-1;spacingLeft=3;spacingRight=3;rotatable=0;labelPosition=right;points=[];portConstraint=eastwest;" parent="8c5guxEhnHxBqYTD4iWY-8" vertex="1">
          <mxGeometry y="26" width="167" height="8" as="geometry" />
        </mxCell>
        <mxCell id="8c5guxEhnHxBqYTD4iWY-10" value="CharType" style="swimlane;fontStyle=1;align=center;verticalAlign=top;childLayout=stackLayout;horizontal=1;startSize=26;horizontalStack=0;resizeParent=1;resizeParentMax=0;resizeLast=0;collapsible=1;marginBottom=0;" parent="1" vertex="1">
          <mxGeometry x="530" y="740" width="167" height="34" as="geometry" />
        </mxCell>
        <mxCell id="8c5guxEhnHxBqYTD4iWY-11" value="" style="line;strokeWidth=1;fillColor=none;align=left;verticalAlign=middle;spacingTop=-1;spacingLeft=3;spacingRight=3;rotatable=0;labelPosition=right;points=[];portConstraint=eastwest;" parent="8c5guxEhnHxBqYTD4iWY-10" vertex="1">
          <mxGeometry y="26" width="167" height="8" as="geometry" />
        </mxCell>
        <mxCell id="8c5guxEhnHxBqYTD4iWY-12" value="ArrayType" style="swimlane;fontStyle=1;align=center;verticalAlign=top;childLayout=stackLayout;horizontal=1;startSize=26;horizontalStack=0;resizeParent=1;resizeParentMax=0;resizeLast=0;collapsible=1;marginBottom=0;" parent="1" vertex="1">
          <mxGeometry x="720" y="740" width="167" height="60" as="geometry" />
        </mxCell>
        <mxCell id="8c5guxEhnHxBqYTD4iWY-13" value="- size: int" style="text;strokeColor=none;fillColor=none;align=left;verticalAlign=top;spacingLeft=4;spacingRight=4;overflow=hidden;rotatable=0;points=[[0,0.5],[1,0.5]];portConstraint=eastwest;" parent="8c5guxEhnHxBqYTD4iWY-12" vertex="1">
          <mxGeometry y="26" width="167" height="26" as="geometry" />
        </mxCell>
        <mxCell id="8c5guxEhnHxBqYTD4iWY-14" value="" style="line;strokeWidth=1;fillColor=none;align=left;verticalAlign=middle;spacingTop=-1;spacingLeft=3;spacingRight=3;rotatable=0;labelPosition=right;points=[];portConstraint=eastwest;" parent="8c5guxEhnHxBqYTD4iWY-12" vertex="1">
          <mxGeometry y="52" width="167" height="8" as="geometry" />
        </mxCell>
        <mxCell id="8c5guxEhnHxBqYTD4iWY-15" value="1" style="endArrow=open;html=1;endSize=12;startArrow=diamondThin;startSize=14;startFill=0;edgeStyle=orthogonalEdgeStyle;align=left;verticalAlign=bottom;entryX=1;entryY=0.5;entryDx=0;entryDy=0;exitX=0.5;exitY=0;exitDx=0;exitDy=0;" parent="1" source="8c5guxEhnHxBqYTD4iWY-12" target="8c5guxEhnHxBqYTD4iWY-3" edge="1">
          <mxGeometry x="0.875" y="10" relative="1" as="geometry">
            <mxPoint x="720" y="600" as="sourcePoint" />
            <mxPoint x="880" y="600" as="targetPoint" />
            <mxPoint as="offset" />
          </mxGeometry>
        </mxCell>
        <mxCell id="8c5guxEhnHxBqYTD4iWY-16" value="" style="endArrow=block;dashed=1;endFill=0;endSize=12;html=1;entryX=0.5;entryY=1;entryDx=0;entryDy=0;exitX=0.5;exitY=0;exitDx=0;exitDy=0;" parent="1" source="8c5guxEhnHxBqYTD4iWY-8" target="8c5guxEhnHxBqYTD4iWY-4" edge="1">
          <mxGeometry width="160" relative="1" as="geometry">
            <mxPoint x="70" y="930" as="sourcePoint" />
            <mxPoint x="230" y="930" as="targetPoint" />
            <Array as="points">
              <mxPoint x="427" y="710" />
              <mxPoint x="427" y="700" />
            </Array>
          </mxGeometry>
        </mxCell>
        <mxCell id="8c5guxEhnHxBqYTD4iWY-17" value="" style="endArrow=block;dashed=1;endFill=0;endSize=12;html=1;entryX=0.5;entryY=1;entryDx=0;entryDy=0;exitX=0.5;exitY=0;exitDx=0;exitDy=0;" parent="1" source="8c5guxEhnHxBqYTD4iWY-6" target="8c5guxEhnHxBqYTD4iWY-4" edge="1">
          <mxGeometry width="160" relative="1" as="geometry">
            <mxPoint x="437" y="750" as="sourcePoint" />
            <mxPoint x="437" y="680" as="targetPoint" />
            <Array as="points">
              <mxPoint x="244" y="710" />
              <mxPoint x="427" y="710" />
            </Array>
          </mxGeometry>
        </mxCell>
        <mxCell id="8c5guxEhnHxBqYTD4iWY-18" value="" style="endArrow=block;dashed=1;endFill=0;endSize=12;html=1;entryX=0.5;entryY=1;entryDx=0;entryDy=0;exitX=0.5;exitY=0;exitDx=0;exitDy=0;" parent="1" source="8c5guxEhnHxBqYTD4iWY-10" target="8c5guxEhnHxBqYTD4iWY-4" edge="1">
          <mxGeometry width="160" relative="1" as="geometry">
            <mxPoint x="437" y="750" as="sourcePoint" />
            <mxPoint x="437" y="680" as="targetPoint" />
            <Array as="points">
              <mxPoint x="614" y="710" />
              <mxPoint x="427" y="710" />
            </Array>
          </mxGeometry>
        </mxCell>
        <mxCell id="8c5guxEhnHxBqYTD4iWY-19" value="" style="endArrow=block;dashed=1;endFill=0;endSize=12;html=1;entryX=0.5;entryY=1;entryDx=0;entryDy=0;exitX=0.362;exitY=0.023;exitDx=0;exitDy=0;exitPerimeter=0;" parent="1" source="8c5guxEhnHxBqYTD4iWY-12" target="8c5guxEhnHxBqYTD4iWY-4" edge="1">
          <mxGeometry width="160" relative="1" as="geometry">
            <mxPoint x="624" y="750" as="sourcePoint" />
            <mxPoint x="437" y="680" as="targetPoint" />
            <Array as="points">
              <mxPoint x="780" y="710" />
              <mxPoint x="427" y="710" />
            </Array>
          </mxGeometry>
        </mxCell>
        <mxCell id="8c5guxEhnHxBqYTD4iWY-20" value="FunctionType" style="swimlane;fontStyle=1;align=center;verticalAlign=top;childLayout=stackLayout;horizontal=1;startSize=26;horizontalStack=0;resizeParent=1;resizeParentMax=0;resizeLast=0;collapsible=1;marginBottom=0;" parent="1" vertex="1">
          <mxGeometry x="-30" y="740" width="167" height="34" as="geometry" />
        </mxCell>
        <mxCell id="8c5guxEhnHxBqYTD4iWY-21" value="" style="line;strokeWidth=1;fillColor=none;align=left;verticalAlign=middle;spacingTop=-1;spacingLeft=3;spacingRight=3;rotatable=0;labelPosition=right;points=[];portConstraint=eastwest;" parent="8c5guxEhnHxBqYTD4iWY-20" vertex="1">
          <mxGeometry y="26" width="167" height="8" as="geometry" />
        </mxCell>
        <mxCell id="8c5guxEhnHxBqYTD4iWY-22" value="" style="endArrow=block;dashed=1;endFill=0;endSize=12;html=1;entryX=0.5;entryY=1;entryDx=0;entryDy=0;exitX=0.5;exitY=0;exitDx=0;exitDy=0;" parent="1" source="8c5guxEhnHxBqYTD4iWY-20" target="8c5guxEhnHxBqYTD4iWY-4" edge="1">
          <mxGeometry width="160" relative="1" as="geometry">
            <mxPoint x="254" y="750" as="sourcePoint" />
            <mxPoint x="437" y="680" as="targetPoint" />
            <Array as="points">
              <mxPoint x="54" y="710" />
              <mxPoint x="430" y="710" />
            </Array>
          </mxGeometry>
        </mxCell>
        <mxCell id="8c5guxEhnHxBqYTD4iWY-28" value="" style="endArrow=block;dashed=1;endFill=0;endSize=12;html=1;entryX=0.539;entryY=0.992;entryDx=0;entryDy=0;entryPerimeter=0;exitX=0.5;exitY=0;exitDx=0;exitDy=0;" parent="1" source="8c5guxEhnHxBqYTD4iWY-4" edge="1">
          <mxGeometry width="160" relative="1" as="geometry">
            <mxPoint x="70" y="930" as="sourcePoint" />
            <mxPoint x="427.52" y="439.03999999999996" as="targetPoint" />
          </mxGeometry>
        </mxCell>
        <mxCell id="8c5guxEhnHxBqYTD4iWY-29" value="VoidType" style="swimlane;fontStyle=1;align=center;verticalAlign=top;childLayout=stackLayout;horizontal=1;startSize=26;horizontalStack=0;resizeParent=1;resizeParentMax=0;resizeLast=0;collapsible=1;marginBottom=0;" parent="1" vertex="1">
          <mxGeometry x="910" y="740" width="167" height="34" as="geometry" />
        </mxCell>
        <mxCell id="8c5guxEhnHxBqYTD4iWY-30" value="" style="line;strokeWidth=1;fillColor=none;align=left;verticalAlign=middle;spacingTop=-1;spacingLeft=3;spacingRight=3;rotatable=0;labelPosition=right;points=[];portConstraint=eastwest;" parent="8c5guxEhnHxBqYTD4iWY-29" vertex="1">
          <mxGeometry y="26" width="167" height="8" as="geometry" />
        </mxCell>
        <mxCell id="8c5guxEhnHxBqYTD4iWY-31" value="" style="endArrow=block;dashed=1;endFill=0;endSize=12;html=1;entryX=0.5;entryY=1;entryDx=0;entryDy=0;exitX=0.25;exitY=0;exitDx=0;exitDy=0;" parent="1" source="8c5guxEhnHxBqYTD4iWY-29" target="8c5guxEhnHxBqYTD4iWY-4" edge="1">
          <mxGeometry width="160" relative="1" as="geometry">
            <mxPoint x="790" y="752" as="sourcePoint" />
            <mxPoint x="437" y="680" as="targetPoint" />
            <Array as="points">
              <mxPoint x="950" y="710" />
              <mxPoint x="430" y="710" />
            </Array>
          </mxGeometry>
        </mxCell>
        <mxCell id="8c5guxEhnHxBqYTD4iWY-32" value="RecordType" style="swimlane;fontStyle=1;align=center;verticalAlign=top;childLayout=stackLayout;horizontal=1;startSize=26;horizontalStack=0;resizeParent=1;resizeParentMax=0;resizeLast=0;collapsible=1;marginBottom=0;" parent="1" vertex="1">
          <mxGeometry x="1100" y="740" width="167" height="34" as="geometry" />
        </mxCell>
        <mxCell id="8c5guxEhnHxBqYTD4iWY-33" value="" style="line;strokeWidth=1;fillColor=none;align=left;verticalAlign=middle;spacingTop=-1;spacingLeft=3;spacingRight=3;rotatable=0;labelPosition=right;points=[];portConstraint=eastwest;" parent="8c5guxEhnHxBqYTD4iWY-32" vertex="1">
          <mxGeometry y="26" width="167" height="8" as="geometry" />
        </mxCell>
        <mxCell id="8c5guxEhnHxBqYTD4iWY-34" value="" style="endArrow=block;dashed=1;endFill=0;endSize=12;html=1;entryX=0.5;entryY=1;entryDx=0;entryDy=0;exitX=0.5;exitY=0;exitDx=0;exitDy=0;" parent="1" source="8c5guxEhnHxBqYTD4iWY-32" target="8c5guxEhnHxBqYTD4iWY-4" edge="1">
          <mxGeometry width="160" relative="1" as="geometry">
            <mxPoint x="962" y="750" as="sourcePoint" />
            <mxPoint x="437" y="680" as="targetPoint" />
            <Array as="points">
              <mxPoint x="1184" y="710" />
              <mxPoint x="427" y="710" />
            </Array>
          </mxGeometry>
        </mxCell>
        <mxCell id="8c5guxEhnHxBqYTD4iWY-35" value="Field" style="swimlane;fontStyle=1;align=center;verticalAlign=top;childLayout=stackLayout;horizontal=1;startSize=26;horizontalStack=0;resizeParent=1;resizeParentMax=0;resizeLast=0;collapsible=1;marginBottom=0;" parent="1" vertex="1">
          <mxGeometry x="1090" y="510" width="167" height="60" as="geometry" />
        </mxCell>
        <mxCell id="8c5guxEhnHxBqYTD4iWY-36" value="- name: String" style="text;strokeColor=none;fillColor=none;align=left;verticalAlign=top;spacingLeft=4;spacingRight=4;overflow=hidden;rotatable=0;points=[[0,0.5],[1,0.5]];portConstraint=eastwest;" parent="8c5guxEhnHxBqYTD4iWY-35" vertex="1">
          <mxGeometry y="26" width="167" height="26" as="geometry" />
        </mxCell>
        <mxCell id="8c5guxEhnHxBqYTD4iWY-37" value="" style="line;strokeWidth=1;fillColor=none;align=left;verticalAlign=middle;spacingTop=-1;spacingLeft=3;spacingRight=3;rotatable=0;labelPosition=right;points=[];portConstraint=eastwest;" parent="8c5guxEhnHxBqYTD4iWY-35" vertex="1">
          <mxGeometry y="52" width="167" height="8" as="geometry" />
        </mxCell>
        <mxCell id="8c5guxEhnHxBqYTD4iWY-38" value="1..*" style="endArrow=open;html=1;endSize=12;startArrow=diamondThin;startSize=14;startFill=0;edgeStyle=orthogonalEdgeStyle;align=left;verticalAlign=bottom;exitX=0.69;exitY=0;exitDx=0;exitDy=0;entryX=0.75;entryY=1;entryDx=0;entryDy=0;exitPerimeter=0;" parent="1" source="8c5guxEhnHxBqYTD4iWY-32" target="8c5guxEhnHxBqYTD4iWY-35" edge="1">
          <mxGeometry x="0.5294" y="5" relative="1" as="geometry">
            <mxPoint x="814" y="750" as="sourcePoint" />
            <mxPoint x="1180" y="510" as="targetPoint" />
            <mxPoint as="offset" />
            <Array as="points">
              <mxPoint x="1215" y="700" />
              <mxPoint x="1215" y="700" />
            </Array>
          </mxGeometry>
        </mxCell>
        <mxCell id="8c5guxEhnHxBqYTD4iWY-39" value="1" style="endArrow=open;html=1;endSize=12;startArrow=diamondThin;startSize=14;startFill=0;edgeStyle=orthogonalEdgeStyle;align=left;verticalAlign=bottom;entryX=1;entryY=0.5;entryDx=0;entryDy=0;exitX=0;exitY=0.25;exitDx=0;exitDy=0;" parent="1" source="8c5guxEhnHxBqYTD4iWY-35" target="8c5guxEhnHxBqYTD4iWY-4" edge="1">
          <mxGeometry x="0.875" y="10" relative="1" as="geometry">
            <mxPoint x="814" y="750" as="sourcePoint" />
            <mxPoint x="527" y="610" as="targetPoint" />
            <mxPoint as="offset" />
            <Array as="points">
              <mxPoint x="970" y="525" />
              <mxPoint x="970" y="610" />
            </Array>
          </mxGeometry>
        </mxCell>
        <mxCell id="8c5guxEhnHxBqYTD4iWY-40" value="1" style="endArrow=open;html=1;endSize=12;startArrow=diamondThin;startSize=14;startFill=0;edgeStyle=orthogonalEdgeStyle;align=left;verticalAlign=bottom;entryX=0;entryY=0.25;entryDx=0;entryDy=0;exitX=0.25;exitY=0;exitDx=0;exitDy=0;" parent="1" source="8c5guxEhnHxBqYTD4iWY-20" target="8c5guxEhnHxBqYTD4iWY-4" edge="1">
          <mxGeometry x="0.875" y="10" relative="1" as="geometry">
            <mxPoint x="50" y="609.5" as="sourcePoint" />
            <mxPoint x="210" y="609.5" as="targetPoint" />
            <mxPoint as="offset" />
          </mxGeometry>
        </mxCell>
        <mxCell id="8c5guxEhnHxBqYTD4iWY-41" value="return type" style="edgeLabel;html=1;align=center;verticalAlign=middle;resizable=0;points=[];" parent="8c5guxEhnHxBqYTD4iWY-40" vertex="1" connectable="0">
          <mxGeometry x="0.1674" y="1" relative="1" as="geometry">
            <mxPoint as="offset" />
          </mxGeometry>
        </mxCell>
        <mxCell id="8c5guxEhnHxBqYTD4iWY-42" value="VariableDefinition" style="swimlane;fontStyle=1;align=center;verticalAlign=top;childLayout=stackLayout;horizontal=1;startSize=26;horizontalStack=0;resizeParent=1;resizeParentMax=0;resizeLast=0;collapsible=1;marginBottom=0;" parent="1" vertex="1">
          <mxGeometry x="-370" y="766" width="167" height="34" as="geometry" />
        </mxCell>
        <mxCell id="8c5guxEhnHxBqYTD4iWY-43" value="" style="line;strokeWidth=1;fillColor=none;align=left;verticalAlign=middle;spacingTop=-1;spacingLeft=3;spacingRight=3;rotatable=0;labelPosition=right;points=[];portConstraint=eastwest;" parent="8c5guxEhnHxBqYTD4iWY-42" vertex="1">
          <mxGeometry y="26" width="167" height="8" as="geometry" />
        </mxCell>
        <mxCell id="8c5guxEhnHxBqYTD4iWY-44" value="*" style="endArrow=open;html=1;endSize=12;startArrow=diamondThin;startSize=14;startFill=0;edgeStyle=orthogonalEdgeStyle;align=left;verticalAlign=bottom;entryX=1;entryY=0.25;entryDx=0;entryDy=0;exitX=0;exitY=0.5;exitDx=0;exitDy=0;" parent="1" source="8c5guxEhnHxBqYTD4iWY-20" target="8c5guxEhnHxBqYTD4iWY-42" edge="1">
          <mxGeometry x="0.6993" y="21" relative="1" as="geometry">
            <mxPoint x="-30" y="779" as="sourcePoint" />
            <mxPoint x="-183" y="779" as="targetPoint" />
            <mxPoint as="offset" />
          </mxGeometry>
        </mxCell>
        <mxCell id="8c5guxEhnHxBqYTD4iWY-45" value="parameters" style="edgeLabel;html=1;align=center;verticalAlign=middle;resizable=0;points=[];" parent="8c5guxEhnHxBqYTD4iWY-44" vertex="1" connectable="0">
          <mxGeometry x="0.1887" y="-1" relative="1" as="geometry">
            <mxPoint as="offset" />
          </mxGeometry>
        </mxCell>
        <mxCell id="8c5guxEhnHxBqYTD4iWY-46" value="" style="endArrow=block;dashed=1;endFill=0;endSize=12;html=1;exitX=0.114;exitY=-0.024;exitDx=0;exitDy=0;exitPerimeter=0;entryX=1;entryY=0.5;entryDx=0;entryDy=0;" parent="1" source="8c5guxEhnHxBqYTD4iWY-35" edge="1">
          <mxGeometry width="160" relative="1" as="geometry">
            <mxPoint x="1090" y="840" as="sourcePoint" />
            <mxPoint x="510.5" y="405" as="targetPoint" />
            <Array as="points">
              <mxPoint x="1110" y="405" />
              <mxPoint x="960" y="405" />
              <mxPoint x="800" y="405" />
            </Array>
          </mxGeometry>
        </mxCell>
        <mxCell id="ua-nQ6t-_lWo6dCN96fh-1" value="ErrorType" style="swimlane;fontStyle=1;align=center;verticalAlign=top;childLayout=stackLayout;horizontal=1;startSize=26;horizontalStack=0;resizeParent=1;resizeParentMax=0;resizeLast=0;collapsible=1;marginBottom=0;" vertex="1" parent="1">
          <mxGeometry x="440" y="820" width="167" height="60" as="geometry" />
        </mxCell>
        <mxCell id="ua-nQ6t-_lWo6dCN96fh-5" value="- message: String" style="text;strokeColor=none;fillColor=none;align=left;verticalAlign=top;spacingLeft=4;spacingRight=4;overflow=hidden;rotatable=0;points=[[0,0.5],[1,0.5]];portConstraint=eastwest;" vertex="1" parent="ua-nQ6t-_lWo6dCN96fh-1">
          <mxGeometry y="26" width="167" height="26" as="geometry" />
        </mxCell>
        <mxCell id="ua-nQ6t-_lWo6dCN96fh-2" value="" style="line;strokeWidth=1;fillColor=none;align=left;verticalAlign=middle;spacingTop=-1;spacingLeft=3;spacingRight=3;rotatable=0;labelPosition=right;points=[];portConstraint=eastwest;" vertex="1" parent="ua-nQ6t-_lWo6dCN96fh-1">
          <mxGeometry y="52" width="167" height="8" as="geometry" />
        </mxCell>
        <mxCell id="ua-nQ6t-_lWo6dCN96fh-3" value="" style="endArrow=block;dashed=1;endFill=0;endSize=12;html=1;entryX=0.5;entryY=1;entryDx=0;entryDy=0;exitX=0.5;exitY=0;exitDx=0;exitDy=0;" edge="1" parent="1" source="ua-nQ6t-_lWo6dCN96fh-1" target="8c5guxEhnHxBqYTD4iWY-4">
          <mxGeometry width="160" relative="1" as="geometry">
            <mxPoint x="624" y="750" as="sourcePoint" />
            <mxPoint x="437" y="680" as="targetPoint" />
            <Array as="points">
              <mxPoint x="524" y="710" />
              <mxPoint x="427" y="710" />
            </Array>
          </mxGeometry>
        </mxCell>
        <mxCell id="BIc5aFJaiJU1LQW06WpJ-1" value="" style="group" vertex="1" connectable="0" parent="1">
          <mxGeometry x="330" y="320" width="180" height="120" as="geometry" />
        </mxCell>
        <mxCell id="BIc5aFJaiJU1LQW06WpJ-2" value="+ method(type): type" style="text;strokeColor=none;fillColor=none;align=left;verticalAlign=top;spacingLeft=4;spacingRight=4;overflow=hidden;rotatable=0;points=[[0,0.5],[1,0.5]];portConstraint=eastwest;" vertex="1" parent="BIc5aFJaiJU1LQW06WpJ-1">
          <mxGeometry y="60" width="180" height="50" as="geometry" />
        </mxCell>
        <mxCell id="BIc5aFJaiJU1LQW06WpJ-3" value="«interface»&lt;br&gt;&lt;b&gt;ASTNode&lt;br&gt;&lt;br&gt;&lt;br&gt;&lt;br&gt;&lt;br&gt;&lt;br&gt;&lt;/b&gt;" style="html=1;" vertex="1" parent="BIc5aFJaiJU1LQW06WpJ-1">
          <mxGeometry width="180" height="120" as="geometry" />
        </mxCell>
        <mxCell id="BIc5aFJaiJU1LQW06WpJ-4" value="" style="line;strokeWidth=1;fillColor=none;align=left;verticalAlign=middle;spacingTop=-1;spacingLeft=3;spacingRight=3;rotatable=0;labelPosition=right;points=[];portConstraint=eastwest;" vertex="1" parent="BIc5aFJaiJU1LQW06WpJ-1">
          <mxGeometry y="50" width="180" height="8" as="geometry" />
        </mxCell>
        <mxCell id="BIc5aFJaiJU1LQW06WpJ-5" value="+ getLine(): int&#xa;+ getColumn():int&#xa;+accept(Visitor v, TP p): TR" style="text;strokeColor=none;fillColor=none;align=left;verticalAlign=top;spacingLeft=4;spacingRight=4;overflow=hidden;rotatable=0;points=[[0,0.5],[1,0.5]];portConstraint=eastwest;" vertex="1" parent="BIc5aFJaiJU1LQW06WpJ-1">
          <mxGeometry y="60" width="180" height="50" as="geometry" />
        </mxCell>
      </root>
    </mxGraphModel>
  </diagram>
</mxfile>
